<svg width="535" height="533" viewBox="0 0 535 533" fill="none" xmlns="http://www.w3.org/2000/svg">
<g filter="url(#filter0_d)">
<rect x="50" y="35.5" width="170" height="170" rx="30" fill="white"/>
</g>
<path d="M126.503 85.3304C125.562 84.3609 124.254 83.7654 122.798 83.7654C122.112 83.7626 121.432 83.8998 120.8 84.1688C120.167 84.4378 119.596 84.8329 119.12 85.3304H119.095C118.603 85.8287 118.215 86.4198 117.951 87.0697C117.687 87.7197 117.553 88.4156 117.557 89.1178C117.547 90.53 118.094 91.8884 119.078 92.8951L119.103 92.922C119.581 93.4156 120.154 93.8071 120.786 94.0731C121.418 94.3391 122.096 94.4742 122.781 94.4701C124.238 94.4701 125.544 93.8831 126.487 92.922L126.497 92.8951C127.44 91.9424 127.996 90.6089 127.996 89.1178C128.005 87.7039 127.46 86.3434 126.478 85.332H126.487L126.503 85.3304ZM122.798 158.596C124.254 158.596 125.56 157.989 126.503 157.036L126.513 157.01C127.456 156.06 128.013 154.718 128.013 153.244C128.013 151.734 127.438 150.416 126.513 149.45H126.503C125.562 148.472 124.254 147.88 122.798 147.88C122.111 147.876 121.43 148.013 120.798 148.283C120.165 148.553 119.594 148.95 119.12 149.45H119.095C118.113 150.465 117.567 151.827 117.574 153.244C117.567 154.652 118.114 156.006 119.095 157.01L119.12 157.036C119.599 157.53 120.171 157.921 120.803 158.189C121.434 158.457 122.113 158.596 122.798 158.596ZM151.26 142.382C151.929 142.203 152.555 141.891 153.102 141.464C153.648 141.037 154.104 140.504 154.442 139.896L154.539 139.708C155.156 138.514 155.303 137.13 154.952 135.832C154.609 134.496 153.786 133.312 152.516 132.577L152.443 132.527C151.261 131.856 149.863 131.683 148.554 132.047C147.255 132.38 146.089 133.267 145.376 134.542C144.683 135.777 144.494 137.236 144.849 138.609C145.208 139.973 146.082 141.141 147.283 141.867H147.292C148.541 142.605 149.952 142.734 151.262 142.37L151.26 142.382ZM128.141 115.712C126.77 114.311 124.876 113.431 122.783 113.431C121.786 113.433 120.799 113.635 119.88 114.027C118.962 114.418 118.131 114.991 117.435 115.71C116.069 117.109 115.229 119.04 115.229 121.187C115.224 123.24 116.015 125.213 117.435 126.687C118.801 128.079 120.691 128.951 122.766 128.951C124.842 128.951 126.753 128.079 128.124 126.687C129.546 125.213 130.339 123.239 130.333 121.185C130.343 119.138 129.549 117.17 128.124 115.709L128.141 115.712ZM125.142 106.591C128.133 107.101 130.885 108.557 132.999 110.749H133.016C133.352 111.094 133.67 111.456 133.97 111.834L139.185 108.743C138.499 106.615 138.44 104.333 139.015 102.172C139.758 99.321 141.564 96.7715 144.266 95.173L144.354 95.1159C145.621 94.3753 147.021 93.8956 148.473 93.7047C149.925 93.5138 151.4 93.6155 152.813 94.0039C154.247 94.3993 155.59 95.0773 156.762 95.9986C157.935 96.92 158.914 98.0663 159.643 99.3713V99.3797C161.196 102.131 161.509 105.287 160.771 108.129C160.032 110.98 158.222 113.546 155.52 115.137L154.807 115.568H154.735C152.318 116.745 149.559 117.004 146.967 116.297C144.854 115.713 142.957 114.522 141.507 112.869L136.299 115.95C136.918 117.62 137.233 119.388 137.229 121.17C137.229 123.008 136.899 124.783 136.299 126.413L141.507 129.488C142.995 127.78 144.896 126.636 146.967 126.058C149.749 125.279 152.828 125.61 155.52 127.218L155.693 127.302V127.311C158.212 128.871 160.032 131.353 160.771 134.236C161.542 137.186 161.138 140.323 159.643 142.977L159.55 143.17H159.538C158.049 145.721 155.635 147.592 152.804 148.39C150.022 149.141 146.94 148.821 144.25 147.236V147.214C141.647 145.672 139.758 143.154 138.998 140.211C138.422 138.054 138.481 135.775 139.168 133.651L133.954 130.568C133.653 130.94 133.334 131.296 132.999 131.637L132.982 131.653C130.897 133.8 128.151 135.293 125.125 135.788V141.961C127.266 142.425 129.222 143.515 130.752 145.092L130.76 145.109C132.797 147.185 134.059 150.08 134.059 153.261C134.064 156.304 132.879 159.226 130.76 161.396L130.752 161.429C128.702 163.499 125.887 164.791 122.783 164.791C119.694 164.791 116.872 163.499 114.826 161.411H114.818V161.377C112.697 159.208 111.51 156.285 111.514 153.241C111.514 150.059 112.78 147.165 114.818 145.089V145.072H114.826C116.347 143.486 118.305 142.396 120.447 141.94V135.768C117.407 135.271 114.683 133.78 112.617 131.633L112.596 131.616C109.872 128.831 108.345 125.08 108.344 121.172C108.344 117.096 109.973 113.409 112.576 110.734H112.597C114.707 108.542 117.457 107.085 120.446 106.575V100.428C118.311 99.9489 116.358 98.8584 114.825 97.2881H114.816V97.2713C112.694 95.0959 111.507 92.167 111.513 89.1178C111.51 86.0695 112.696 83.142 114.816 80.9659L114.841 80.9576C115.873 79.8869 117.107 79.0353 118.471 78.4534C119.835 77.8714 121.302 77.5708 122.783 77.5693C125.889 77.5693 128.702 78.8609 130.753 80.9576V80.9659H130.762C132.799 83.0542 134.06 85.9527 134.06 89.1178C134.063 92.165 132.879 95.0918 130.762 97.2696L130.753 97.2864C129.234 98.8363 127.295 99.945 125.127 100.426V106.574L125.142 106.591ZM154.439 102.489L154.395 102.422C153.704 101.232 152.579 100.361 151.258 99.9953C150.594 99.8112 149.899 99.7634 149.216 99.8547C148.532 99.9461 147.874 100.175 147.28 100.527H147.288C146.035 101.255 145.197 102.448 144.846 103.781C144.487 105.154 144.676 106.614 145.372 107.849L145.396 107.882C146.117 109.14 147.267 109.987 148.549 110.328C149.837 110.7 151.275 110.542 152.511 109.804L152.578 109.771C153.794 109.026 154.61 107.849 154.947 106.557C155.292 105.224 155.155 103.766 154.439 102.489Z" fill="url(#paint0_linear)"/>
<g filter="url(#filter1_d)">
<rect x="365" y="60.5" width="120" height="120" rx="30" fill="white"/>
</g>
<g clip-path="url(#clip0)">
<path d="M450.708 113.985L446.008 113.387C445.62 112.195 445.143 111.045 444.585 109.952L447.488 106.215C448.663 104.702 448.525 102.568 447.183 101.267L443.245 97.33C441.933 95.975 439.798 95.84 438.283 97.0125L434.55 99.915C433.458 99.3575 432.308 98.88 431.113 98.4925L430.515 93.8C430.29 91.9175 428.693 90.5 426.8 90.5H421.2C419.308 90.5 417.71 91.9175 417.485 93.7925L416.888 98.4925C415.693 98.88 414.543 99.355 413.45 99.915L409.715 97.0125C408.205 95.84 406.07 95.975 404.768 97.3175L400.83 101.253C399.475 102.568 399.338 104.703 400.513 106.218L403.415 109.952C402.855 111.045 402.38 112.195 401.993 113.387L397.3 113.985C395.418 114.21 394 115.808 394 117.7V123.3C394 125.193 395.418 126.79 397.293 127.015L401.993 127.612C402.38 128.805 402.858 129.955 403.415 131.048L400.513 134.785C399.338 136.298 399.475 138.433 400.818 139.733L404.755 143.67C406.07 145.022 408.203 145.157 409.718 143.985L413.453 141.083C414.545 141.642 415.695 142.12 416.888 142.505L417.485 147.195C417.71 149.083 419.308 150.5 421.2 150.5H426.8C428.693 150.5 430.29 149.083 430.515 147.208L431.113 142.507C432.305 142.12 433.455 141.642 434.548 141.085L438.285 143.988C439.798 145.163 441.933 145.025 443.233 143.683L447.17 139.745C448.525 138.43 448.663 136.297 447.488 134.782L444.585 131.048C445.145 129.955 445.623 128.805 446.008 127.612L450.698 127.015C452.58 126.79 453.998 125.193 453.998 123.3V117.7C454 115.808 452.583 114.21 450.708 113.985ZM424 133C417.108 133 411.5 127.393 411.5 120.5C411.5 113.608 417.108 108 424 108C430.893 108 436.5 113.608 436.5 120.5C436.5 127.393 430.893 133 424 133Z" fill="url(#paint1_linear)"/>
</g>
<path d="M390.949 150.5V132.75H395.824V139.5L401.224 132.75H406.724L400.274 140.7L407.174 150.5H401.574L397.174 143.975L395.824 145.375V150.5H390.949ZM419.46 138.55C419.46 138.55 419.318 138.467 419.035 138.3C418.751 138.133 418.376 137.95 417.91 137.75C417.443 137.533 416.935 137.342 416.385 137.175C415.835 137.008 415.293 136.925 414.76 136.925C414.343 136.925 414.001 136.992 413.735 137.125C413.468 137.258 413.335 137.483 413.335 137.8C413.335 138.267 413.626 138.6 414.21 138.8C414.81 138.983 415.618 139.242 416.635 139.575C417.735 139.908 418.685 140.292 419.485 140.725C420.285 141.158 420.901 141.717 421.335 142.4C421.768 143.067 421.985 143.958 421.985 145.075C421.985 146.142 421.793 147.042 421.41 147.775C421.026 148.492 420.51 149.067 419.86 149.5C419.21 149.933 418.485 150.25 417.685 150.45C416.885 150.633 416.068 150.725 415.235 150.725C414.385 150.725 413.493 150.642 412.56 150.475C411.643 150.292 410.751 150.05 409.885 149.75C409.018 149.433 408.226 149.067 407.51 148.65L409.61 144.375C409.61 144.375 409.776 144.475 410.11 144.675C410.443 144.875 410.885 145.1 411.435 145.35C411.985 145.6 412.593 145.825 413.26 146.025C413.943 146.225 414.626 146.325 415.31 146.325C415.843 146.325 416.21 146.258 416.41 146.125C416.626 145.975 416.735 145.783 416.735 145.55C416.735 145.2 416.551 144.933 416.185 144.75C415.818 144.55 415.335 144.367 414.735 144.2C414.151 144.017 413.501 143.808 412.785 143.575C411.218 143.042 410.076 142.408 409.36 141.675C408.643 140.925 408.285 139.9 408.285 138.6C408.285 137.283 408.593 136.183 409.21 135.3C409.826 134.417 410.635 133.75 411.635 133.3C412.651 132.833 413.743 132.6 414.91 132.6C415.776 132.6 416.61 132.708 417.41 132.925C418.226 133.125 418.985 133.375 419.685 133.675C420.401 133.975 421.026 134.258 421.56 134.525L419.46 138.55ZM438.064 150.5V141.15L435.089 147.725H432.489L429.514 141.15V150.5H424.639V132.75H429.964L433.789 141.1L437.639 132.75H442.939V150.5H438.064ZM446.477 150.5V132.75H451.352V146.25H459.402V150.5H446.477Z" fill="url(#paint2_linear)"/>
<path d="M390.949 150.5H384.949V156.5H390.949V150.5ZM390.949 132.75V126.75H384.949V132.75H390.949ZM395.824 132.75H401.824V126.75H395.824V132.75ZM395.824 139.5H389.824V156.605L400.509 143.248L395.824 139.5ZM401.224 132.75V126.75H398.34L396.539 129.002L401.224 132.75ZM406.724 132.75L411.383 136.53L419.318 126.75H406.724V132.75ZM400.274 140.7L395.614 136.92L392.755 140.444L395.368 144.154L400.274 140.7ZM407.174 150.5V156.5H418.736L412.08 147.046L407.174 150.5ZM401.574 150.5L396.599 153.855L398.383 156.5H401.574V150.5ZM397.174 143.975L402.148 140.62L398.002 134.472L392.855 139.81L397.174 143.975ZM395.824 145.375L391.505 141.21L389.824 142.953V145.375H395.824ZM395.824 150.5V156.5H401.824V150.5H395.824ZM396.949 150.5V132.75H384.949V150.5H396.949ZM390.949 138.75H395.824V126.75H390.949V138.75ZM389.824 132.75V139.5H401.824V132.75H389.824ZM400.509 143.248L405.909 136.498L396.539 129.002L391.139 135.752L400.509 143.248ZM401.224 138.75H406.724V126.75H401.224V138.75ZM402.064 128.97L395.614 136.92L404.933 144.48L411.383 136.53L402.064 128.97ZM395.368 144.154L402.268 153.954L412.08 147.046L405.18 137.246L395.368 144.154ZM407.174 144.5H401.574V156.5H407.174V144.5ZM406.548 147.145L402.148 140.62L392.199 147.33L396.599 153.855L406.548 147.145ZM392.855 139.81L391.505 141.21L400.143 149.54L401.493 148.14L392.855 139.81ZM389.824 145.375V150.5H401.824V145.375H389.824ZM395.824 144.5H390.949V156.5H395.824V144.5ZM419.46 138.55L416.417 143.722L421.859 146.922L424.779 141.325L419.46 138.55ZM419.035 138.3L422.077 133.128L422.077 133.128L419.035 138.3ZM417.91 137.75L415.383 143.192L415.464 143.23L415.546 143.265L417.91 137.75ZM416.385 137.175L418.125 131.433L418.125 131.433L416.385 137.175ZM413.735 137.125L416.418 142.492L416.418 142.492L413.735 137.125ZM414.21 138.8L412.264 144.476L412.359 144.509L412.456 144.538L414.21 138.8ZM416.635 139.575L414.765 145.276L414.83 145.297L414.895 145.317L416.635 139.575ZM419.485 140.725L422.342 135.449V135.449L419.485 140.725ZM421.335 142.4L416.268 145.613L416.286 145.642L416.304 145.67L421.335 142.4ZM421.41 147.775L426.7 150.605L426.714 150.58L426.727 150.555L421.41 147.775ZM419.86 149.5L423.188 154.492L423.188 154.492L419.86 149.5ZM417.685 150.45L419.025 156.298L419.082 156.285L419.14 156.271L417.685 150.45ZM412.56 150.475L411.383 156.358L411.444 156.371L411.505 156.382L412.56 150.475ZM409.885 149.75L407.825 155.386L407.874 155.403L407.922 155.42L409.885 149.75ZM407.51 148.65L402.124 146.005L399.658 151.025L404.494 153.837L407.51 148.65ZM409.61 144.375L412.697 139.23L407.101 135.873L404.224 141.73L409.61 144.375ZM411.435 145.35L408.952 150.812H408.952L411.435 145.35ZM413.26 146.025L411.535 151.772L411.555 151.778L411.574 151.783L413.26 146.025ZM416.41 146.125L419.738 151.117L419.782 151.088L419.825 151.058L416.41 146.125ZM416.185 144.75L413.311 150.017L413.405 150.069L413.501 150.117L416.185 144.75ZM414.735 144.2L412.936 149.924L413.032 149.954L413.129 149.981L414.735 144.2ZM412.785 143.575L410.851 149.255L410.889 149.268L410.927 149.28L412.785 143.575ZM409.36 141.675L405.022 145.82L405.045 145.845L405.068 145.869L409.36 141.675ZM409.21 135.3L404.29 131.865L404.29 131.865L409.21 135.3ZM411.635 133.3L414.097 138.772L414.117 138.762L414.138 138.753L411.635 133.3ZM417.41 132.925L415.841 138.716L415.911 138.735L415.982 138.753L417.41 132.925ZM419.685 133.675L417.321 139.19L417.344 139.2L417.368 139.21L419.685 133.675ZM421.56 134.525L426.879 137.3L429.703 131.888L424.243 129.158L421.56 134.525ZM419.46 138.55C422.502 133.378 422.502 133.378 422.502 133.378C422.502 133.378 422.502 133.378 422.502 133.378C422.502 133.378 422.502 133.378 422.502 133.378C422.502 133.378 422.502 133.378 422.502 133.378C422.501 133.378 422.502 133.378 422.501 133.378C422.499 133.377 422.502 133.379 422.5 133.377C422.496 133.375 422.501 133.378 422.495 133.374C422.468 133.358 422.507 133.381 422.475 133.363C422.39 133.313 422.498 133.376 422.395 133.316C422.139 133.165 422.404 133.321 422.077 133.128L415.992 143.472C416.034 143.496 416.154 143.567 416.178 143.581C416.198 143.592 416.199 143.593 416.217 143.603C416.223 143.607 416.228 143.61 416.234 143.614C416.238 143.616 416.248 143.622 416.251 143.624C416.252 143.624 416.253 143.625 416.253 143.625C416.254 143.625 416.254 143.626 416.255 143.626C416.255 143.626 416.255 143.626 416.256 143.626C416.258 143.628 416.258 143.628 416.26 143.629C416.265 143.632 416.263 143.631 416.268 143.633C416.269 143.634 416.282 143.642 416.283 143.642C416.284 143.643 416.286 143.644 416.287 143.645C416.287 143.645 416.288 143.645 416.289 143.646C416.289 143.646 416.289 143.646 416.289 143.646C416.29 143.646 416.29 143.647 416.29 143.647C416.291 143.647 416.291 143.647 416.291 143.647C416.292 143.648 416.292 143.648 416.292 143.648C416.292 143.648 416.293 143.648 416.293 143.648C416.293 143.649 416.294 143.649 416.294 143.649C416.295 143.65 416.296 143.65 416.297 143.651C416.3 143.653 416.302 143.653 416.304 143.655C416.304 143.655 416.306 143.656 416.306 143.656C416.306 143.656 416.308 143.657 416.308 143.657C416.309 143.658 416.31 143.659 416.311 143.659C416.326 143.668 416.348 143.681 416.358 143.686C416.361 143.688 416.374 143.696 416.376 143.697C416.378 143.698 416.382 143.701 416.384 143.702C416.385 143.702 416.387 143.703 416.387 143.704C416.388 143.704 416.388 143.704 416.388 143.704C416.388 143.705 416.389 143.705 416.389 143.705C416.389 143.705 416.389 143.705 416.389 143.705C416.389 143.705 416.39 143.705 416.39 143.705C416.39 143.706 416.391 143.706 416.391 143.706C416.392 143.707 416.393 143.707 416.394 143.708C416.394 143.708 416.394 143.708 416.394 143.708C416.395 143.708 416.395 143.708 416.395 143.708C416.395 143.708 416.395 143.708 416.395 143.709C416.395 143.709 416.396 143.709 416.396 143.709C416.396 143.709 416.396 143.709 416.397 143.71C416.398 143.71 416.402 143.713 416.403 143.713C416.403 143.713 416.403 143.713 416.403 143.713C416.403 143.713 416.403 143.713 416.403 143.713C416.404 143.714 416.403 143.713 416.404 143.714C416.404 143.714 416.404 143.714 416.405 143.714C416.405 143.714 416.405 143.714 416.405 143.715C416.406 143.715 416.406 143.715 416.406 143.715C416.406 143.715 416.407 143.715 416.407 143.715C416.407 143.716 416.407 143.716 416.408 143.716C416.408 143.716 416.408 143.716 416.408 143.716C416.408 143.716 416.408 143.716 416.408 143.716C416.408 143.716 416.408 143.716 416.408 143.716C416.408 143.716 416.408 143.716 416.409 143.716C416.409 143.717 416.409 143.716 416.409 143.717C416.409 143.717 416.409 143.717 416.409 143.717C416.409 143.717 416.409 143.717 416.41 143.717C416.41 143.717 416.41 143.717 416.41 143.717C416.41 143.717 416.41 143.717 416.41 143.717C416.41 143.717 416.41 143.717 416.41 143.717C416.41 143.717 416.41 143.717 416.41 143.717C416.41 143.717 416.411 143.718 416.411 143.718C416.411 143.718 416.411 143.718 416.411 143.718C416.411 143.718 416.411 143.718 416.411 143.718C416.411 143.718 416.411 143.718 416.411 143.718C416.411 143.718 416.411 143.718 416.411 143.718C416.411 143.718 416.412 143.718 416.412 143.718C416.412 143.718 416.412 143.719 416.412 143.719C416.413 143.719 416.413 143.719 416.414 143.719C416.414 143.72 416.416 143.721 416.416 143.721C416.416 143.721 416.416 143.721 416.416 143.721C416.416 143.721 416.416 143.721 416.416 143.721C416.416 143.721 416.416 143.721 416.416 143.721C416.416 143.721 416.416 143.721 416.416 143.721C416.416 143.721 416.416 143.721 416.416 143.721C416.416 143.721 416.416 143.721 416.417 143.721C416.417 143.721 416.417 143.721 416.417 143.721C416.417 143.721 416.417 143.721 416.417 143.721C416.417 143.721 416.417 143.721 416.417 143.721C416.417 143.721 416.417 143.721 416.417 143.721C416.417 143.721 416.417 143.721 416.417 143.721C416.417 143.721 416.417 143.721 416.417 143.721C416.417 143.721 416.417 143.721 416.417 143.721C416.417 143.721 416.417 143.721 416.417 143.721C416.417 143.721 416.417 143.721 416.417 143.721C416.417 143.721 416.417 143.722 416.417 143.722C416.417 143.722 416.417 143.722 416.417 143.722C416.417 143.722 416.417 143.722 416.417 143.722C416.417 143.722 416.417 143.722 416.417 143.722C416.417 143.722 416.417 143.722 416.417 143.722C416.417 143.722 416.417 143.722 416.417 143.722C416.417 143.722 416.417 143.722 416.417 143.722C416.417 143.722 416.417 143.722 416.417 143.722C416.417 143.722 416.417 143.722 419.46 138.55ZM422.077 133.128C421.491 132.784 420.862 132.488 420.273 132.235L415.546 143.265C415.707 143.334 415.824 143.388 415.906 143.428C415.99 143.469 416.013 143.484 415.992 143.472L422.077 133.128ZM420.436 132.308C419.687 131.96 418.913 131.672 418.125 131.433L414.645 142.917C414.956 143.012 415.199 143.106 415.383 143.192L420.436 132.308ZM418.125 131.433C417.054 131.108 415.926 130.925 414.76 130.925V142.925C414.713 142.925 414.676 142.921 414.653 142.918C414.631 142.914 414.628 142.912 414.645 142.917L418.125 131.433ZM414.76 130.925C413.76 130.925 412.415 131.077 411.051 131.758L416.418 142.492C415.588 142.907 414.926 142.925 414.76 142.925V130.925ZM411.051 131.758C410.036 132.266 409.006 133.098 408.273 134.335C407.552 135.551 407.335 136.792 407.335 137.8H419.335C419.335 138.491 419.184 139.462 418.596 140.453C417.996 141.465 417.167 142.117 416.418 142.492L411.051 131.758ZM407.335 137.8C407.335 139.402 407.881 141.028 409.038 142.351C410.094 143.558 411.35 144.162 412.264 144.476L416.156 133.124C416.486 133.238 417.305 133.576 418.069 134.449C418.934 135.438 419.335 136.665 419.335 137.8H407.335ZM412.456 144.538C413 144.704 413.764 144.948 414.765 145.276L418.504 133.874C417.471 133.535 416.619 133.262 415.963 133.062L412.456 144.538ZM414.895 145.317C415.703 145.562 416.261 145.803 416.627 146.001L422.342 135.449C421.108 134.781 419.766 134.254 418.375 133.833L414.895 145.317ZM416.627 146.001C416.644 146.01 416.598 145.988 416.52 145.917C416.439 145.843 416.348 145.741 416.268 145.613L426.402 139.187C425.354 137.535 423.929 136.309 422.342 135.449L416.627 146.001ZM416.304 145.67C416.099 145.355 416.019 145.098 415.992 144.985C415.966 144.88 415.985 144.895 415.985 145.075H427.985C427.985 143.248 427.639 141.089 426.365 139.13L416.304 145.67ZM415.985 145.075C415.985 145.253 415.968 145.32 415.972 145.3C415.977 145.276 416.005 145.162 416.092 144.995L426.727 150.555C427.67 148.751 427.985 146.838 427.985 145.075H415.985ZM416.119 144.945C416.143 144.9 416.191 144.823 416.272 144.734C416.352 144.644 416.443 144.567 416.531 144.508L423.188 154.492C424.694 153.488 425.87 152.157 426.7 150.605L416.119 144.945ZM416.531 144.508C416.485 144.539 416.4 144.587 416.229 144.629L419.14 156.271C420.57 155.913 421.934 155.328 423.188 154.492L416.531 144.508ZM416.344 144.602C415.991 144.683 415.624 144.725 415.235 144.725V156.725C416.512 156.725 417.778 156.584 419.025 156.298L416.344 144.602ZM415.235 144.725C414.776 144.725 414.239 144.68 413.614 144.568L411.505 156.382C412.747 156.603 413.993 156.725 415.235 156.725V144.725ZM413.736 144.592C413.081 144.46 412.452 144.289 411.847 144.08L407.922 155.42C409.05 155.811 410.205 156.123 411.383 156.358L413.736 144.592ZM411.944 144.114C411.372 143.905 410.905 143.684 410.525 143.463L404.494 153.837C405.548 154.45 406.664 154.961 407.825 155.386L411.944 144.114ZM412.895 151.295L414.995 147.02L404.224 141.73L402.124 146.005L412.895 151.295ZM409.61 144.375C406.523 149.52 406.523 149.52 406.523 149.52C406.523 149.52 406.523 149.52 406.523 149.52C406.523 149.52 406.523 149.52 406.523 149.52C406.523 149.52 406.523 149.52 406.523 149.52C406.523 149.52 406.523 149.52 406.523 149.52C406.523 149.52 406.523 149.52 406.523 149.52C406.523 149.52 406.523 149.52 406.523 149.52C406.523 149.52 406.523 149.52 406.523 149.52C406.523 149.52 406.523 149.52 406.523 149.52C406.523 149.52 406.523 149.52 406.523 149.52C406.523 149.52 406.523 149.52 406.523 149.52C406.523 149.52 406.523 149.52 406.523 149.52C406.523 149.52 406.523 149.52 406.523 149.52C406.523 149.52 406.523 149.52 406.523 149.52C406.523 149.52 406.524 149.521 406.524 149.521C406.524 149.521 406.524 149.521 406.524 149.521C406.524 149.521 406.524 149.521 406.524 149.521C406.524 149.521 406.524 149.521 406.524 149.521C406.524 149.521 406.524 149.521 406.524 149.521C406.524 149.521 406.525 149.521 406.525 149.521C406.528 149.523 406.525 149.522 406.53 149.525C406.541 149.531 406.528 149.523 406.54 149.531C406.572 149.55 406.521 149.519 406.554 149.539C406.56 149.542 406.556 149.54 406.562 149.544C406.564 149.545 406.563 149.544 406.564 149.545C406.565 149.545 406.565 149.545 406.566 149.546C406.566 149.546 406.566 149.546 406.567 149.546C406.57 149.548 406.568 149.547 406.571 149.549C406.572 149.549 406.572 149.549 406.572 149.55C406.572 149.55 406.572 149.55 406.573 149.55C406.573 149.55 406.573 149.55 406.573 149.55C406.573 149.55 406.574 149.551 406.574 149.551C406.574 149.551 406.574 149.551 406.575 149.551C406.575 149.551 406.575 149.551 406.575 149.551C406.575 149.552 406.576 149.552 406.576 149.552C406.576 149.552 406.576 149.552 406.576 149.552C406.578 149.553 406.576 149.552 406.578 149.553C406.578 149.553 406.578 149.553 406.578 149.553C406.579 149.554 406.579 149.554 406.579 149.554C406.58 149.555 406.58 149.555 406.582 149.555C406.599 149.566 406.575 149.552 406.593 149.562C406.738 149.649 406.498 149.505 406.648 149.595C406.673 149.61 406.758 149.661 406.804 149.689C407.25 149.956 406.556 149.54 407.023 149.82L413.197 139.53C413.096 139.47 412.839 139.315 412.822 139.305C412.821 139.305 412.82 139.304 412.82 139.304C412.819 139.304 412.818 139.303 412.818 139.303C412.811 139.299 412.82 139.304 412.814 139.3C412.811 139.299 412.813 139.3 412.81 139.298C412.807 139.296 412.809 139.298 412.806 139.296C412.792 139.287 412.813 139.3 412.799 139.292C412.797 139.29 412.798 139.291 412.796 139.29C412.788 139.285 412.8 139.292 412.792 139.287C412.791 139.287 412.792 139.287 412.791 139.286C412.79 139.286 412.79 139.286 412.79 139.286C412.789 139.286 412.789 139.286 412.789 139.285C412.788 139.285 412.788 139.285 412.787 139.284C412.787 139.284 412.787 139.284 412.786 139.284C412.786 139.284 412.786 139.284 412.786 139.283C412.785 139.283 412.785 139.283 412.785 139.283C412.784 139.283 412.784 139.283 412.784 139.282C412.784 139.282 412.783 139.282 412.783 139.282C412.783 139.282 412.783 139.282 412.782 139.281C412.782 139.281 412.782 139.281 412.781 139.281C412.781 139.281 412.781 139.281 412.781 139.281C412.78 139.28 412.78 139.28 412.78 139.28C412.78 139.28 412.779 139.28 412.779 139.28C412.779 139.279 412.779 139.279 412.778 139.279C412.778 139.279 412.778 139.279 412.777 139.279C412.777 139.278 412.776 139.278 412.776 139.278C412.776 139.278 412.775 139.277 412.775 139.277C412.775 139.277 412.775 139.277 412.774 139.277C412.774 139.277 412.774 139.276 412.774 139.276C412.773 139.276 412.773 139.276 412.773 139.276C412.772 139.275 412.768 139.273 412.767 139.272C412.72 139.244 412.769 139.274 412.728 139.249C412.725 139.247 412.727 139.248 412.724 139.247C412.718 139.243 412.726 139.248 412.72 139.244C412.71 139.238 412.724 139.246 412.714 139.241C412.714 139.241 412.714 139.24 412.714 139.24C412.714 139.24 412.714 139.24 412.713 139.24C412.713 139.24 412.713 139.24 412.713 139.24C412.713 139.24 412.713 139.24 412.713 139.24C412.713 139.24 412.712 139.24 412.712 139.24C412.712 139.239 412.712 139.239 412.712 139.239C412.712 139.239 412.712 139.239 412.712 139.239C412.712 139.239 412.711 139.239 412.711 139.239C412.711 139.239 412.711 139.239 412.711 139.239C412.711 139.239 412.711 139.239 412.711 139.239C412.709 139.238 412.712 139.239 412.71 139.238C412.71 139.238 412.71 139.238 412.709 139.238C412.709 139.238 412.709 139.238 412.709 139.238C412.709 139.237 412.709 139.237 412.709 139.237C412.698 139.231 412.717 139.242 412.706 139.236C412.706 139.236 412.706 139.236 412.706 139.236C412.706 139.236 412.706 139.236 412.706 139.236C412.706 139.236 412.706 139.236 412.706 139.235C412.706 139.235 412.705 139.235 412.705 139.235C412.704 139.235 412.706 139.236 412.704 139.235C412.704 139.235 412.703 139.234 412.703 139.234C412.701 139.233 412.702 139.234 412.701 139.233C412.697 139.231 412.702 139.233 412.698 139.231C412.698 139.231 412.697 139.23 412.697 139.23C412.697 139.23 412.697 139.23 412.697 139.23C412.697 139.23 412.697 139.23 412.697 139.23C412.697 139.23 412.697 139.23 412.697 139.23C412.696 139.23 412.697 139.23 412.697 139.23C412.697 139.23 412.697 139.23 412.697 139.23C412.697 139.23 412.697 139.23 412.697 139.23C412.697 139.23 412.697 139.23 412.697 139.23C412.697 139.23 412.697 139.23 412.697 139.23C412.697 139.23 412.697 139.23 409.61 144.375ZM407.023 149.82C407.627 150.182 408.294 150.513 408.952 150.812L413.917 139.888C413.475 139.687 413.259 139.568 413.197 139.53L407.023 149.82ZM408.952 150.812C409.782 151.189 410.648 151.506 411.535 151.772L414.984 140.278C414.538 140.144 414.188 140.011 413.917 139.888L408.952 150.812ZM411.574 151.783C412.782 152.137 414.032 152.325 415.31 152.325V140.325C415.22 140.325 415.104 140.313 414.945 140.267L411.574 151.783ZM415.31 152.325C415.796 152.325 416.405 152.297 417.058 152.178C417.65 152.071 418.686 151.819 419.738 151.117L413.081 141.133C413.534 140.831 413.944 140.656 414.231 140.555C414.523 140.452 414.76 140.399 414.911 140.372C415.197 140.32 415.356 140.325 415.31 140.325V152.325ZM419.825 151.058C421.417 149.956 422.735 148.031 422.735 145.55H410.735C410.735 144.696 410.944 143.775 411.43 142.916C411.901 142.084 412.503 141.532 412.994 141.192L419.825 151.058ZM422.735 145.55C422.735 144.265 422.377 142.904 421.541 141.688C420.741 140.524 419.722 139.81 418.868 139.383L413.501 150.117C413.014 149.873 412.27 149.384 411.653 148.487C411 147.537 410.735 146.485 410.735 145.55H422.735ZM419.058 139.483C418.146 138.985 417.188 138.654 416.34 138.419L413.129 149.981C413.287 150.025 413.379 150.057 413.419 150.072C413.438 150.08 413.437 150.08 413.421 150.073C413.405 150.065 413.367 150.048 413.311 150.017L419.058 139.483ZM416.534 138.476C415.974 138.3 415.344 138.098 414.642 137.87L410.927 149.28C411.659 149.519 412.329 149.733 412.936 149.924L416.534 138.476ZM414.718 137.895C414.188 137.715 413.853 137.558 413.664 137.453C413.47 137.346 413.509 137.336 413.651 137.481L405.068 145.869C406.728 147.566 408.88 148.584 410.851 149.255L414.718 137.895ZM413.698 137.53C413.958 137.803 414.127 138.107 414.217 138.364C414.299 138.599 414.285 138.705 414.285 138.6H402.285C402.285 141.034 402.985 143.689 405.022 145.82L413.698 137.53ZM414.285 138.6C414.285 138.408 414.307 138.357 414.293 138.407C414.286 138.432 414.271 138.479 414.243 138.539C414.214 138.6 414.177 138.667 414.129 138.735L404.29 131.865C402.827 133.961 402.285 136.332 402.285 138.6H414.285ZM414.129 138.735C414.134 138.728 414.132 138.731 414.125 138.739C414.118 138.747 414.107 138.757 414.096 138.766C414.084 138.776 414.076 138.781 414.073 138.783C414.07 138.785 414.077 138.78 414.097 138.772L409.172 127.828C407.203 128.715 405.538 130.077 404.29 131.865L414.129 138.735ZM414.138 138.753C414.335 138.662 414.569 138.6 414.91 138.6V126.6C412.917 126.6 410.967 127.004 409.132 127.847L414.138 138.753ZM414.91 138.6C415.271 138.6 415.575 138.644 415.841 138.716L418.978 127.134C417.644 126.772 416.282 126.6 414.91 126.6V138.6ZM415.982 138.753C416.511 138.882 416.953 139.032 417.321 139.19L422.048 128.16C421.016 127.718 419.941 127.368 418.837 127.097L415.982 138.753ZM417.368 139.21C417.995 139.472 418.493 139.7 418.876 139.892L424.243 129.158C423.56 128.817 422.807 128.478 422.001 128.14L417.368 139.21ZM416.24 131.75L414.14 135.775L424.779 141.325L426.879 137.3L416.24 131.75ZM438.064 150.5H432.064V156.5H438.064V150.5ZM438.064 141.15H444.064L432.598 138.677L438.064 141.15ZM435.089 147.725V153.725H438.96L440.556 150.198L435.089 147.725ZM432.489 147.725L427.023 150.198L428.618 153.725H432.489V147.725ZM429.514 141.15L434.981 138.677L423.514 141.15H429.514ZM429.514 150.5V156.5H435.514V150.5H429.514ZM424.639 150.5H418.639V156.5H424.639V150.5ZM424.639 132.75V126.75H418.639V132.75H424.639ZM429.964 132.75L435.419 130.251L433.815 126.75H429.964V132.75ZM433.789 141.1L428.334 143.599L433.771 155.468L439.238 143.612L433.789 141.1ZM437.639 132.75V126.75H433.799L432.191 130.238L437.639 132.75ZM442.939 132.75H448.939V126.75H442.939V132.75ZM442.939 150.5V156.5H448.939V150.5H442.939ZM444.064 150.5V141.15H432.064V150.5H444.064ZM432.598 138.677L429.623 145.252L440.556 150.198L443.531 143.623L432.598 138.677ZM435.089 141.725H432.489V153.725H435.089V141.725ZM437.956 145.252L434.981 138.677L424.048 143.623L427.023 150.198L437.956 145.252ZM423.514 141.15V150.5H435.514V141.15H423.514ZM429.514 144.5H424.639V156.5H429.514V144.5ZM430.639 150.5V132.75H418.639V150.5H430.639ZM424.639 138.75H429.964V126.75H424.639V138.75ZM424.509 135.249L428.334 143.599L439.244 138.601L435.419 130.251L424.509 135.249ZM439.238 143.612L443.088 135.262L432.191 130.238L428.341 138.588L439.238 143.612ZM437.639 138.75H442.939V126.75H437.639V138.75ZM436.939 132.75V150.5H448.939V132.75H436.939ZM442.939 144.5H438.064V156.5H442.939V144.5ZM446.477 150.5H440.477V156.5H446.477V150.5ZM446.477 132.75V126.75H440.477V132.75H446.477ZM451.352 132.75H457.352V126.75H451.352V132.75ZM451.352 146.25H445.352V152.25H451.352V146.25ZM459.402 146.25H465.402V140.25H459.402V146.25ZM459.402 150.5V156.5H465.402V150.5H459.402ZM452.477 150.5V132.75H440.477V150.5H452.477ZM446.477 138.75H451.352V126.75H446.477V138.75ZM445.352 132.75V146.25H457.352V132.75H445.352ZM451.352 152.25H459.402V140.25H451.352V152.25ZM453.402 146.25V150.5H465.402V146.25H453.402ZM459.402 144.5H446.477V156.5H459.402V144.5Z" fill="white"/>
<path d="M311 112.5C311.552 112.5 312 112.052 312 111.5C312 110.948 311.552 110.5 311 110.5L311 112.5ZM273.293 110.793C272.902 111.183 272.902 111.817 273.293 112.207L279.657 118.571C280.047 118.962 280.681 118.962 281.071 118.571C281.462 118.181 281.462 117.547 281.071 117.157L275.414 111.5L281.071 105.843C281.462 105.453 281.462 104.819 281.071 104.429C280.681 104.038 280.047 104.038 279.657 104.429L273.293 110.793ZM311 110.5L274 110.5L274 112.5L311 112.5L311 110.5Z" fill="#CFD2E4"/>
<path d="M274 140.5C273.448 140.5 273 140.948 273 141.5C273 142.052 273.448 142.5 274 142.5L274 140.5ZM311.707 142.207C312.098 141.817 312.098 141.183 311.707 140.793L305.343 134.429C304.953 134.038 304.319 134.038 303.929 134.429C303.538 134.819 303.538 135.453 303.929 135.843L309.586 141.5L303.929 147.157C303.538 147.547 303.538 148.181 303.929 148.571C304.319 148.962 304.953 148.962 305.343 148.571L311.707 142.207ZM274 142.5L311 142.5L311 140.5L274 140.5L274 142.5Z" fill="#CFD2E4"/>
<g filter="url(#filter2_d)">
<rect x="365" y="347.5" width="120" height="120" rx="30" fill="white"/>
</g>
<g clip-path="url(#clip1)">
<path d="M394.818 409.279C398.367 412.323 402.39 415.774 410.171 415.774C417.953 415.774 421.976 412.323 425.526 409.279C428.882 406.4 431.781 403.913 437.828 403.913C443.875 403.913 446.774 406.4 450.13 409.279C451.113 410.122 452.592 410.008 453.435 409.026C454.278 408.043 454.165 406.564 453.182 405.721C449.633 402.677 445.61 399.226 437.828 399.226C430.046 399.226 426.023 402.677 422.474 405.721C419.117 408.6 416.218 411.087 410.171 411.087C404.125 411.087 401.226 408.6 397.87 405.721C396.887 404.878 395.408 404.991 394.565 405.974C393.722 406.957 393.835 408.436 394.818 409.279Z" fill="#B9C4DE"/>
<path d="M394.818 396.459C398.367 399.504 402.39 402.955 410.171 402.955C417.953 402.955 421.976 399.504 425.526 396.459C428.882 393.58 431.781 391.094 437.828 391.094C443.874 391.094 446.773 393.58 450.13 396.459C451.113 397.302 452.592 397.189 453.435 396.206C454.278 395.224 454.164 393.744 453.182 392.901C449.632 389.857 445.609 386.406 437.828 386.406C430.046 386.406 426.023 389.857 422.474 392.901C419.117 395.781 416.218 398.267 410.171 398.267C404.125 398.267 401.226 395.781 397.87 392.901C396.887 392.059 395.408 392.172 394.565 393.154C393.722 394.137 393.835 395.617 394.818 396.459Z" fill="#B9C4DE"/>
<path d="M453.182 418.54C449.633 415.496 445.61 412.045 437.828 412.045C430.046 412.045 426.023 415.496 422.474 418.54C419.117 421.42 416.218 423.906 410.171 423.906C404.125 423.906 401.226 421.42 397.87 418.541L397.87 418.54C396.887 417.698 395.408 417.811 394.565 418.794C393.722 419.776 393.836 421.256 394.818 422.099C398.367 425.143 402.39 428.594 410.171 428.594C417.953 428.594 421.976 425.143 425.526 422.098C428.882 419.219 431.781 416.733 437.828 416.733C443.875 416.733 446.774 419.219 450.13 422.098C451.113 422.941 452.593 422.828 453.435 421.845C454.278 420.863 454.165 419.383 453.182 418.54Z" fill="#B9C4DE"/>
</g>
<g filter="url(#filter3_d)">
<rect x="55" y="347.5" width="120" height="120" rx="30" fill="white"/>
</g>
<g clip-path="url(#clip2)">
<path d="M130 390H127.5C126.12 390 125 388.88 125 387.5C125 386.12 126.12 385 127.5 385H130C131.38 385 132.5 386.12 132.5 387.5C132.5 388.88 131.38 390 130 390Z" fill="#B9C4DE"/>
<path d="M130 400H127.5C126.12 400 125 398.88 125 397.5C125 396.12 126.12 395 127.5 395H130C131.38 395 132.5 396.12 132.5 397.5C132.5 398.88 131.38 400 130 400Z" fill="#B9C4DE"/>
<path d="M130 410H127.5C126.12 410 125 408.88 125 407.5C125 406.12 126.12 405 127.5 405H130C131.38 405 132.5 406.12 132.5 407.5C132.5 408.88 131.38 410 130 410Z" fill="#B9C4DE"/>
<path d="M120 413.153V386.25C120 381.425 116.075 377.5 111.25 377.5C106.425 377.5 102.5 381.425 102.5 386.25V413.153C99.3524 415.752 97.4999 419.645 97.4999 423.75C97.4999 431.33 103.667 437.5 111.25 437.5C118.832 437.5 125 431.33 125 423.75C125 419.643 123.147 415.752 120 413.153ZM111.25 430C107.805 430 105 427.197 105 423.75C105 421.193 106.547 418.998 108.75 418.03V392.5C108.75 391.12 109.87 390 111.25 390C112.63 390 113.75 391.12 113.75 392.5V418.03C115.952 418.998 117.5 421.193 117.5 423.75C117.5 427.197 114.695 430 111.25 430Z" fill="#B9C4DE"/>
</g>
<g filter="url(#filter4_d)">
<rect x="210" y="347.5" width="120" height="120" rx="30" fill="white"/>
</g>
<g clip-path="url(#clip3)">
<path d="M270 386.142C268.965 386.142 268.125 385.303 268.125 384.267V379.375C268.125 378.34 268.965 377.5 270 377.5C271.035 377.5 271.875 378.34 271.875 379.375V384.267C271.875 385.303 271.035 386.142 270 386.142Z" fill="#B9C4DE"/>
<path d="M286.427 392.947C285.947 392.947 285.467 392.765 285.102 392.397C284.37 391.665 284.37 390.477 285.102 389.745L288.562 386.285C289.295 385.552 290.482 385.552 291.215 386.285C291.947 387.017 291.947 388.205 291.215 388.937L287.755 392.397C287.387 392.762 286.907 392.947 286.427 392.947Z" fill="#B9C4DE"/>
<path d="M298.125 409.375H293.232C292.197 409.375 291.357 408.535 291.357 407.5C291.357 406.465 292.197 405.625 293.232 405.625H298.125C299.16 405.625 300 406.465 300 407.5C300 408.535 299.16 409.375 298.125 409.375Z" fill="#B9C4DE"/>
<path d="M289.887 429.262C289.407 429.262 288.927 429.08 288.562 428.712L285.102 425.252C284.37 424.52 284.37 423.332 285.102 422.6C285.835 421.867 287.022 421.867 287.755 422.6L291.215 426.06C291.947 426.792 291.947 427.98 291.215 428.712C290.847 429.08 290.367 429.262 289.887 429.262Z" fill="#B9C4DE"/>
<path d="M250.112 429.262C249.632 429.262 249.152 429.08 248.787 428.712C248.055 427.98 248.055 426.792 248.787 426.06L252.247 422.6C252.98 421.867 254.167 421.867 254.9 422.6C255.632 423.332 255.632 424.52 254.9 425.252L251.44 428.712C251.072 429.08 250.592 429.262 250.112 429.262Z" fill="#B9C4DE"/>
<path d="M246.767 409.375H241.875C240.84 409.375 240 408.535 240 407.5C240 406.465 240.84 405.625 241.875 405.625H246.767C247.803 405.625 248.642 406.465 248.642 407.5C248.642 408.535 247.803 409.375 246.767 409.375Z" fill="#B9C4DE"/>
<path d="M253.572 392.947C253.092 392.947 252.612 392.765 252.247 392.397L248.787 388.937C248.055 388.205 248.055 387.017 248.787 386.285C249.52 385.552 250.707 385.552 251.44 386.285L254.9 389.745C255.632 390.477 255.632 391.665 254.9 392.397C254.53 392.762 254.052 392.947 253.572 392.947Z" fill="#B9C4DE"/>
<path d="M277.5 430V433.125C277.5 435.525 275.525 437.5 273.125 437.5H266.875C264.775 437.5 262.5 435.9 262.5 432.4V430H277.5Z" fill="#B9C4DE"/>
<path d="M281.025 393.9C276.925 390.575 271.525 389.275 266.25 390.4C259.625 391.775 254.25 397.175 252.875 403.8C251.475 410.6 254.025 417.35 259.475 421.475C260.95 422.575 261.975 424.275 262.325 426.25V426.275C262.375 426.25 262.45 426.25 262.5 426.25H277.5C277.55 426.25 277.575 426.25 277.625 426.275V426.25C277.975 424.35 279.1 422.6 280.825 421.25C285.05 417.9 287.5 412.9 287.5 407.5C287.5 402.2 285.15 397.25 281.025 393.9ZM279.375 408.75C278.35 408.75 277.5 407.9 277.5 406.875C277.5 403.075 274.425 400 270.625 400C269.6 400 268.75 399.15 268.75 398.125C268.75 397.1 269.6 396.25 270.625 396.25C276.475 396.25 281.25 401.025 281.25 406.875C281.25 407.9 280.4 408.75 279.375 408.75Z" fill="#B9C4DE"/>
<path d="M262.325 426.25H262.5C262.45 426.25 262.375 426.25 262.325 426.275V426.25Z" fill="#B9C4DE"/>
<path d="M277.625 426.25V426.275C277.575 426.25 277.55 426.25 277.5 426.25H277.625Z" fill="#B9C4DE"/>
</g>
<path d="M155.5 224.5C154.948 224.5 154.5 224.948 154.5 225.5V234.5C154.5 235.052 154.948 235.5 155.5 235.5C156.052 235.5 156.5 235.052 156.5 234.5V226.5H164.5C165.052 226.5 165.5 226.052 165.5 225.5C165.5 224.948 165.052 224.5 164.5 224.5H155.5ZM271 242.5L270.992 241.5L271 242.5ZM425 327.523C425.013 328.075 425.471 328.512 426.023 328.5C426.575 328.487 427.012 328.029 427 327.477L425 327.523ZM154.793 226.207C155.805 227.219 157.116 229.057 159.978 230.995C162.861 232.947 167.339 235.045 174.944 236.957C190.134 240.777 217.988 243.9 271.008 243.5L270.992 241.5C218.012 241.9 190.366 238.773 175.431 235.018C167.974 233.142 163.732 231.122 161.1 229.339C158.446 227.543 157.445 226.031 156.207 224.793L154.793 226.207ZM271.008 243.5C337.197 243 375.43 253.252 397.228 268.937C418.939 284.558 424.504 305.692 425 327.523L427 327.477C426.496 305.308 420.811 283.442 398.397 267.313C376.07 251.248 337.303 241 270.992 241.5L271.008 243.5Z" fill="#CFD2E4"/>
<path d="M135.464 224.614C134.975 224.358 134.37 224.547 134.114 225.036L129.938 233.008C129.682 233.498 129.871 234.102 130.36 234.358C130.849 234.615 131.454 234.426 131.71 233.936L135.422 226.85L142.508 230.562C142.998 230.818 143.602 230.629 143.858 230.14C144.115 229.651 143.926 229.046 143.436 228.79L135.464 224.614ZM200 256.5L199.921 257.497L200 256.5ZM267.5 327C267.5 327.552 267.948 328 268.5 328C269.052 328 269.5 327.552 269.5 327H267.5ZM134.046 225.798C135.334 229.921 137.883 236.802 147.172 243.175C156.41 249.512 172.23 255.29 199.921 257.497L200.079 255.503C172.57 253.31 157.14 247.588 148.303 241.525C139.517 235.498 137.166 229.079 135.954 225.202L134.046 225.798ZM199.921 257.497C234.164 260.226 250.956 273.342 259.259 287.749C267.609 302.24 267.5 318.233 267.5 327H269.5C269.5 318.267 269.641 301.76 260.991 286.751C252.294 271.658 234.836 258.274 200.079 255.503L199.921 257.497Z" fill="#CFD2E4"/>
<path d="M119.96 226.721C119.806 226.191 119.252 225.886 118.721 226.04L110.078 228.549C109.548 228.703 109.243 229.258 109.397 229.788C109.551 230.318 110.105 230.624 110.636 230.47L118.318 228.239L120.549 235.922C120.703 236.452 121.258 236.757 121.788 236.603C122.318 236.449 122.624 235.895 122.47 235.364L119.96 226.721ZM115 274.5L114 274.5L115 274.5ZM114 327.509C114.005 328.062 114.457 328.505 115.009 328.5C115.562 328.495 116.005 328.043 116 327.491L114 327.509ZM118.124 226.518C115.256 231.732 114.252 238.37 113.938 246.31C113.625 254.24 114 263.695 114 274.5L116 274.5C116 263.571 115.625 254.276 115.937 246.389C116.248 238.513 117.244 232.268 119.876 227.482L118.124 226.518ZM114 274.5C114 282.098 113.833 309.504 114 327.509L116 327.491C115.833 309.496 116 282.123 116 274.5L114 274.5Z" fill="#CFD2E4"/>
<defs>
<filter id="filter0_d" x="0" y="0.5" width="270" height="270" filterUnits="userSpaceOnUse" color-interpolation-filters="sRGB">
<feFlood flood-opacity="0" result="BackgroundImageFix"/>
<feColorMatrix in="SourceAlpha" type="matrix" values="0 0 0 0 0 0 0 0 0 0 0 0 0 0 0 0 0 0 127 0"/>
<feOffset dy="15"/>
<feGaussianBlur stdDeviation="25"/>
<feColorMatrix type="matrix" values="0 0 0 0 0.654902 0 0 0 0 0.682353 0 0 0 0 0.827451 0 0 0 0.25 0"/>
<feBlend mode="normal" in2="BackgroundImageFix" result="effect1_dropShadow"/>
<feBlend mode="normal" in="SourceGraphic" in2="effect1_dropShadow" result="shape"/>
</filter>
<filter id="filter1_d" x="315" y="25.5" width="220" height="220" filterUnits="userSpaceOnUse" color-interpolation-filters="sRGB">
<feFlood flood-opacity="0" result="BackgroundImageFix"/>
<feColorMatrix in="SourceAlpha" type="matrix" values="0 0 0 0 0 0 0 0 0 0 0 0 0 0 0 0 0 0 127 0"/>
<feOffset dy="15"/>
<feGaussianBlur stdDeviation="25"/>
<feColorMatrix type="matrix" values="0 0 0 0 0.654902 0 0 0 0 0.682353 0 0 0 0 0.827451 0 0 0 0.25 0"/>
<feBlend mode="normal" in2="BackgroundImageFix" result="effect1_dropShadow"/>
<feBlend mode="normal" in="SourceGraphic" in2="effect1_dropShadow" result="shape"/>
</filter>
<filter id="filter2_d" x="315" y="312.5" width="220" height="220" filterUnits="userSpaceOnUse" color-interpolation-filters="sRGB">
<feFlood flood-opacity="0" result="BackgroundImageFix"/>
<feColorMatrix in="SourceAlpha" type="matrix" values="0 0 0 0 0 0 0 0 0 0 0 0 0 0 0 0 0 0 127 0"/>
<feOffset dy="15"/>
<feGaussianBlur stdDeviation="25"/>
<feColorMatrix type="matrix" values="0 0 0 0 0.654902 0 0 0 0 0.682353 0 0 0 0 0.827451 0 0 0 0.25 0"/>
<feBlend mode="normal" in2="BackgroundImageFix" result="effect1_dropShadow"/>
<feBlend mode="normal" in="SourceGraphic" in2="effect1_dropShadow" result="shape"/>
</filter>
<filter id="filter3_d" x="5" y="312.5" width="220" height="220" filterUnits="userSpaceOnUse" color-interpolation-filters="sRGB">
<feFlood flood-opacity="0" result="BackgroundImageFix"/>
<feColorMatrix in="SourceAlpha" type="matrix" values="0 0 0 0 0 0 0 0 0 0 0 0 0 0 0 0 0 0 127 0"/>
<feOffset dy="15"/>
<feGaussianBlur stdDeviation="25"/>
<feColorMatrix type="matrix" values="0 0 0 0 0.654902 0 0 0 0 0.682353 0 0 0 0 0.827451 0 0 0 0.25 0"/>
<feBlend mode="normal" in2="BackgroundImageFix" result="effect1_dropShadow"/>
<feBlend mode="normal" in="SourceGraphic" in2="effect1_dropShadow" result="shape"/>
</filter>
<filter id="filter4_d" x="160" y="312.5" width="220" height="220" filterUnits="userSpaceOnUse" color-interpolation-filters="sRGB">
<feFlood flood-opacity="0" result="BackgroundImageFix"/>
<feColorMatrix in="SourceAlpha" type="matrix" values="0 0 0 0 0 0 0 0 0 0 0 0 0 0 0 0 0 0 127 0"/>
<feOffset dy="15"/>
<feGaussianBlur stdDeviation="25"/>
<feColorMatrix type="matrix" values="0 0 0 0 0.654902 0 0 0 0 0.682353 0 0 0 0 0.827451 0 0 0 0.25 0"/>
<feBlend mode="normal" in2="BackgroundImageFix" result="effect1_dropShadow"/>
<feBlend mode="normal" in="SourceGraphic" in2="effect1_dropShadow" result="shape"/>
</filter>
<linearGradient id="paint0_linear" x1="108.344" y1="77.5693" x2="167.437" y2="82.0572" gradientUnits="userSpaceOnUse">
<stop stop-color="#0052D4"/>
<stop offset="0.5" stop-color="#4364F7"/>
<stop offset="1" stop-color="#6FB1FC"/>
</linearGradient>
<linearGradient id="paint1_linear" x1="423.999" y1="76.5" x2="423.999" y2="184.5" gradientUnits="userSpaceOnUse">
<stop stop-color="#FFE259"/>
<stop offset="1" stop-color="#FFB800"/>
</linearGradient>
<linearGradient id="paint2_linear" x1="424.5" y1="123.667" x2="424.5" y2="168.667" gradientUnits="userSpaceOnUse">
<stop stop-color="#FFE259"/>
<stop offset="1" stop-color="#FFB800"/>
</linearGradient>
<clipPath id="clip0">
<rect width="60" height="60" fill="white" transform="translate(394 90.5)"/>
</clipPath>
<clipPath id="clip1">
<rect width="60" height="60" fill="white" transform="translate(394 377.5)"/>
</clipPath>
<clipPath id="clip2">
<rect width="60" height="60" fill="white" transform="translate(85 377.5)"/>
</clipPath>
<clipPath id="clip3">
<rect width="60" height="60" fill="white" transform="translate(240 377.5)"/>
</clipPath>
</defs>
</svg>
