<svg data-name="logo" width="73" height="19" viewBox="0 0 73 19" fill="none" xmlns="http://www.w3.org/2000/svg"><path d="M15.536.96V18h-4.68v-6.672H5.144V18H.464V.96h4.68v6.288h5.712V.96h4.68zm11.568 17.184c-1.296 0-2.472-.24-3.528-.72a8.927 8.927 0 01-2.736-1.968 9.4 9.4 0 01-1.752-2.784c-.4-1.04-.6-2.112-.6-3.216a8.25 8.25 0 01.648-3.24 8.93 8.93 0 011.8-2.736 8.564 8.564 0 012.76-1.92c1.072-.464 2.24-.696 3.504-.696 1.296 0 2.472.248 3.528.744a8.162 8.162 0 012.712 1.968 8.94 8.94 0 011.728 2.808 8.343 8.343 0 01-.024 6.384 8.658 8.658 0 01-1.8 2.76c-.768.8-1.68 1.44-2.736 1.92-1.056.464-2.224.696-3.504.696zm-3.864-8.64c0 .752.136 1.472.408 2.16.288.688.72 1.248 1.296 1.68.592.432 1.328.648 2.208.648.912 0 1.648-.224 2.208-.672.576-.448 1-1.016 1.272-1.704a5.946 5.946 0 00.408-2.16c0-.768-.144-1.488-.432-2.16a3.835 3.835 0 00-1.296-1.632c-.576-.432-1.304-.648-2.184-.648-.896 0-1.632.224-2.208.672-.576.432-1 .992-1.272 1.68a5.639 5.639 0 00-.408 2.136zM51.624 18V9.024l-2.856 6.312h-2.496l-2.856-6.312V18h-4.68V.96h5.112l3.672 8.016L51.216.96h5.088V18h-4.68zm20.7-4.08V18H60.18V.96h11.928v4.08H64.86v2.4h6.192v3.792H64.86v2.688h7.464z" fill="url(#prefix__paint0_linear)"/><defs><linearGradient id="prefix__paint0_linear" x1="-1" y1="-2" x2="72.166" y2="26.68" gradientUnits="userSpaceOnUse"><stop stop-color="#0052D4"/><stop offset=".5" stop-color="#4364F7"/><stop offset="1" stop-color="#6FB1FC"/></linearGradient></defs></svg>