<svg width="604" height="724" viewBox="0 0 604 724" fill="none" xmlns="http://www.w3.org/2000/svg">
<g filter="url(#filter0_d)">
<rect x="138" y="223" width="188" height="188" rx="30" fill="white"/>
</g>
<g filter="url(#filter1_d)">
<rect x="50" y="539" width="120" height="120" rx="30" fill="white"/>
</g>
<g filter="url(#filter2_d)">
<rect x="290" y="479" width="120" height="120" rx="30" fill="white"/>
</g>
<g filter="url(#filter3_d)">
<rect x="434" y="258" width="120" height="120" rx="30" fill="white"/>
</g>
<g filter="url(#filter4_d)">
<rect x="75" y="35" width="120" height="120" rx="30" fill="white"/>
</g>
<path d="M231.603 262C203.679 262 205.422 274.173 205.422 274.173L205.454 286.785H232.102V290.571H194.869C194.869 290.571 177 288.534 177 316.858C177 345.182 192.597 344.177 192.597 344.177H201.905V331.034C201.905 331.034 201.403 315.356 217.252 315.356C233.101 315.356 243.682 315.356 243.682 315.356C243.682 315.356 258.532 315.597 258.532 300.929C258.532 286.262 258.532 276.677 258.532 276.677C258.532 276.677 260.786 262 231.603 262ZM216.91 270.481C219.561 270.481 221.704 272.635 221.704 275.3C221.704 277.965 219.561 280.119 216.91 280.119C214.258 280.119 212.116 277.965 212.116 275.3C212.116 272.635 214.258 270.481 216.91 270.481Z" fill="url(#paint0_linear)"/>
<path d="M232.397 372C260.321 372 258.578 359.827 258.578 359.827L258.546 347.215H231.898V343.429H269.131C269.131 343.429 287 345.466 287 317.142C287 288.818 271.403 289.823 271.403 289.823H262.095V302.966C262.095 302.966 262.597 318.644 246.748 318.644C230.899 318.644 220.318 318.644 220.318 318.644C220.318 318.644 205.468 318.403 205.468 333.071C205.468 347.738 205.468 357.323 205.468 357.323C205.468 357.323 203.214 372 232.397 372ZM247.09 363.519C244.439 363.519 242.296 361.365 242.296 358.7C242.296 356.035 244.439 353.881 247.09 353.881C249.742 353.881 251.884 356.035 251.884 358.7C251.884 361.365 249.742 363.519 247.09 363.519Z" fill="url(#paint1_linear)"/>
<g clip-path="url(#clip0)">
<path d="M110.733 625.767L105.733 620.767C104.755 619.79 104.755 618.21 105.733 617.232L110.733 612.232C111.71 611.255 113.29 611.255 114.268 612.232C115.245 613.21 115.245 614.79 114.268 615.767L111.035 619L114.268 622.232C115.245 623.21 115.245 624.79 114.268 625.767C113.29 626.745 111.71 626.745 110.733 625.767Z" fill="#B9C4DE"/>
<path d="M130.732 625.767C129.755 624.79 129.755 623.21 130.732 622.232L133.965 619L130.732 615.767C129.755 614.79 129.755 613.21 130.732 612.232C131.71 611.255 133.29 611.255 134.267 612.232L139.267 617.232C140.245 618.21 140.245 619.79 139.267 620.767L134.267 625.767C133.29 626.745 131.71 626.745 130.732 625.767Z" fill="#B9C4DE"/>
<path d="M119.21 628.873C117.902 628.435 117.192 627.02 117.63 625.71L122.63 610.71C123.067 609.4 124.47 608.69 125.792 609.13C127.1 609.568 127.81 610.983 127.372 612.293L122.372 627.293C121.937 628.588 120.532 629.313 119.21 628.873Z" fill="#B9C4DE"/>
<path d="M124.95 569.275C118.475 568.325 112.75 569.875 107.5 574C102.25 569.875 96.5249 568.325 90.0499 569.275C87.8749 569.575 86.2499 571.45 86.2499 573.6V601.025C86.2499 602.25 86.7749 603.425 87.6999 604.25C88.6249 605.1 89.8999 605.5 91.1499 605.35C95.1249 604.9 98.9749 605.725 102.525 607.75C103.675 608.375 104.775 609.15 105.85 610.05L107.2 608.7C107.55 608.35 107.95 608.025 108.375 607.75C110.2 606.55 112.4 606.225 114.45 606.775C116.5 605.875 118.675 605.35 120.875 605.275C122.675 604.05 124.975 603.65 127.2 604.325C127.25 604.3 127.275 604.275 127.3 604.25C128.225 603.425 128.75 602.25 128.75 601.025V573.6C128.75 571.45 127.125 569.575 124.95 569.275ZM125 601.025C125 601.2 124.925 601.35 124.8 601.45C124.725 601.525 124.575 601.625 124.35 601.625C124.325 601.625 124.25 601.625 124.25 601.625C118.275 600.95 112.525 602.65 107.5 606.575C103.2 603.225 98.3499 601.475 93.2749 601.475C92.4249 601.475 91.5999 601.525 90.7249 601.625C90.4499 601.65 90.2749 601.525 90.1999 601.45C90.0749 601.35 89.9999 601.2 89.9999 601.025V573.6C89.9999 573.3 90.2499 573.025 90.5749 572.975C96.4999 572.1 101.475 573.675 106.275 577.85C106.975 578.475 108.025 578.475 108.725 577.85C113.525 573.675 118.5 572.125 124.425 572.975C124.75 573.025 125 573.3 125 573.6V601.025Z" fill="#B9C4DE"/>
<path d="M108.375 607.75C107.95 608.025 107.55 608.35 107.2 608.7L104.4 611.5H84.375C81.975 611.5 80 609.525 80 607.125V578.375C80 575.975 81.95 574.025 84.35 574H87.5C88.525 574 89.375 574.825 89.375 575.875C89.375 576.9 88.55 577.75 87.5 577.75H84.375C84.025 577.75 83.75 578.05 83.75 578.375V607.125C83.75 607.475 84.025 607.75 84.375 607.75H108.375Z" fill="#B9C4DE"/>
<path d="M135 578.375V606.95C133.8 606.525 132.5 606.425 131.25 606.65V578.375C131.25 578.025 130.975 577.75 130.625 577.75H127.5C126.475 577.75 125.625 576.9 125.625 575.875C125.625 574.85 126.475 574 127.5 574H130.625C133.025 574 135 575.975 135 578.375Z" fill="#B9C4DE"/>
<path d="M105.625 607.75V576.5C105.625 575.465 106.465 574.625 107.5 574.625C108.535 574.625 109.375 575.465 109.375 576.5V606.5L105.625 607.75Z" fill="#B9C4DE"/>
</g>
<g clip-path="url(#clip1)">
<path d="M372.467 520.46L354.829 510.288C351.851 508.571 348.15 508.571 345.171 510.288L327.533 520.46C324.549 522.181 322.695 525.391 322.695 528.836V549.164C322.695 552.609 324.549 555.819 327.533 557.54L345.171 567.712C348.15 569.43 351.851 569.429 354.829 567.712L372.467 557.54C375.451 555.819 377.305 552.609 377.305 549.164V528.836C377.305 525.391 375.451 522.181 372.467 520.46ZM372.617 549.164C372.617 550.939 371.662 552.592 370.125 553.478L352.487 563.65C350.953 564.535 349.047 564.535 347.513 563.65L329.875 553.478C328.338 552.592 327.383 550.939 327.383 549.164V528.836C327.383 527.061 328.338 525.408 329.875 524.522L347.513 514.35C349.047 513.465 350.954 513.465 352.487 514.35L370.125 524.522C371.662 525.408 372.617 527.061 372.617 528.836V549.164Z" fill="#B9C4DE"/>
<path d="M347.773 537.211L339.068 529.844C338.08 529.008 336.601 529.131 335.765 530.119C334.929 531.107 335.052 532.586 336.04 533.423L342.63 539L336.04 544.577C335.052 545.414 334.929 546.893 335.765 547.881C336.603 548.872 338.082 548.99 339.068 548.156L347.773 540.789C348.88 539.852 348.877 538.145 347.773 537.211Z" fill="#B9C4DE"/>
<path d="M362.446 544.022H351.9C350.605 544.022 349.556 545.072 349.556 546.367C349.556 547.661 350.605 548.711 351.9 548.711H362.446C363.74 548.711 364.79 547.661 364.79 546.367C364.79 545.072 363.74 544.022 362.446 544.022Z" fill="#B9C4DE"/>
</g>
<path d="M106.2 74.12V115.64C106.2 119.96 109.8 123.56 114.12 123.56H155.64C159.96 123.56 163.56 119.96 163.56 115.64V74.12C163.56 69.8 159.96 66.2 155.64 66.2H114.12C109.8 66.2 106.2 69.8 106.2 74.12ZM159 85.64V115.64C159 117.32 157.56 118.76 155.88 118.76H114.12C112.44 118.76 111 117.32 111 115.64V85.64C111 83.96 112.44 82.52 114.12 82.52H155.64C157.56 82.52 159 83.96 159 85.64ZM133.08 72.44H153.96C155.16 72.44 156.36 73.64 156.36 74.84C156.36 76.04 155.16 77.24 153.96 77.24H133.08C131.64 77.24 130.68 76.04 130.68 74.84C130.68 73.64 131.64 72.44 133.08 72.44ZM122.52 72.44C123.96 72.44 124.92 73.64 124.92 74.84C124.92 76.04 123.96 77.24 122.52 77.24C121.08 77.24 120.12 76.04 120.12 74.84C120.12 73.64 121.08 72.44 122.52 72.44ZM118.2 74.84C118.2 76.04 117.24 77.24 115.8 77.24C114.6 77.24 113.4 76.04 113.4 74.84C113.4 73.64 114.6 72.44 115.8 72.44C117.24 72.44 118.2 73.64 118.2 74.84Z" fill="#B9C4DE"/>
<path d="M147.24 92.8399C146.28 91.8799 144.84 91.8799 143.88 92.8399C142.92 93.7999 142.92 95.2399 143.88 96.1999L147.48 99.7999L143.88 103.4C142.92 104.36 142.92 105.8 143.88 106.76C144.84 107.72 146.28 107.72 147.24 106.76L152.76 101.48C153.72 100.52 153.72 98.8399 152.76 98.1199L147.24 92.8399Z" fill="#B9C4DE"/>
<path d="M126.12 93.0799C125.16 92.1199 123.72 92.1199 122.76 93.0799L117.24 98.3599C116.28 99.3199 116.28 101 117.24 101.72L122.76 107C123.72 107.96 125.16 107.96 126.12 107C127.08 106.04 127.08 104.6 126.12 103.64L122.52 100.04L126.12 96.4399C127.08 95.4799 127.08 94.0399 126.12 93.0799Z" fill="#B9C4DE"/>
<path d="M139.08 86.5999C137.88 86.3599 136.44 87.0799 136.2 88.2799L130.2 109.88C129.96 111.08 130.68 112.52 131.88 112.76C133.08 113 134.52 112.28 134.76 111.08L140.76 89.4799C141 88.2799 140.28 87.0799 139.08 86.5999Z" fill="#B9C4DE"/>
<path d="M240.993 414.881C240.927 414.333 240.429 413.941 239.881 414.007C239.333 414.073 238.941 414.571 239.007 415.119L240.993 414.881ZM275 443.5L275.109 442.506L275 443.5ZM343 448.5L342.262 449.174L343 448.5ZM347.773 473.187C348.152 473.588 348.785 473.606 349.187 473.227L355.73 467.047C356.131 466.668 356.149 466.035 355.77 465.634C355.391 465.232 354.758 465.214 354.356 465.593L348.54 471.086L343.047 465.27C342.668 464.869 342.035 464.851 341.634 465.23C341.232 465.609 341.214 466.242 341.593 466.644L347.773 473.187ZM239.007 415.119C240.056 423.858 248.774 441.638 274.891 444.494L275.109 442.506C250.026 439.762 241.944 422.809 240.993 414.881L239.007 415.119ZM274.891 444.494C290.997 446.256 305.497 444.62 317.116 443.999C322.954 443.686 328.03 443.631 332.279 444.346C336.512 445.057 339.837 446.519 342.262 449.174L343.738 447.826C340.913 444.731 337.113 443.13 332.611 442.373C328.126 441.619 322.859 441.689 317.009 442.001C305.253 442.63 291.003 444.244 275.109 442.506L274.891 444.494ZM342.262 449.174C345.148 452.336 346.52 456.647 347.133 460.983C347.745 465.312 347.584 469.54 347.5 472.471L349.5 472.529C349.582 469.627 349.753 465.229 349.113 460.703C348.475 456.186 347.014 451.413 343.738 447.826L342.262 449.174Z" fill="#CFD2E4"/>
<path d="M343 316C342.448 316 342 316.448 342 317C342 317.552 342.448 318 343 318L343 316ZM418.707 317.707C419.098 317.317 419.098 316.683 418.707 316.293L412.343 309.929C411.953 309.538 411.319 309.538 410.929 309.929C410.538 310.319 410.538 310.953 410.929 311.343L416.586 317L410.929 322.657C410.538 323.047 410.538 323.681 410.929 324.071C411.319 324.462 411.953 324.462 412.343 324.071L418.707 317.707ZM343 318L418 318L418 316L343 316L343 318Z" fill="#CFD2E4"/>
<path d="M227.5 216.5C227.5 217.052 227.948 217.5 228.5 217.5C229.052 217.5 229.5 217.052 229.5 216.5H227.5ZM215.5 195.5L215.171 196.444L215.5 195.5ZM137.235 165.322C136.86 164.916 136.228 164.891 135.822 165.265L129.208 171.37C128.803 171.744 128.777 172.377 129.152 172.783C129.527 173.189 130.159 173.214 130.565 172.839L136.443 167.413L141.87 173.292C142.244 173.697 142.877 173.723 143.283 173.348C143.689 172.973 143.714 172.341 143.339 171.935L137.235 165.322ZM229.5 216.5C229.5 213.957 230.142 209.735 228.76 205.639C227.328 201.397 223.803 197.329 215.829 194.556L215.171 196.444C222.697 199.062 225.672 202.744 226.865 206.279C228.108 209.96 227.5 213.543 227.5 216.5H229.5ZM215.829 194.556C209.944 192.509 201.074 191.378 191.396 190.566C186.541 190.159 181.453 189.83 176.399 189.51C171.342 189.189 166.319 188.877 161.579 188.503L161.421 190.497C166.181 190.873 171.221 191.186 176.273 191.506C181.328 191.826 186.397 192.154 191.229 192.559C200.926 193.372 209.556 194.491 215.171 196.444L215.829 194.556ZM161.579 188.503C152.221 187.764 146.119 185.069 142.411 181.185C138.714 177.312 137.256 172.109 137.499 166.04L135.501 165.96C135.244 172.391 136.786 178.188 140.964 182.565C145.131 186.931 151.779 189.736 161.421 190.497L161.579 188.503Z" fill="#CFD2E4"/>
<path d="M229.994 415.888C229.932 415.339 229.436 414.944 228.888 415.006C228.339 415.068 227.944 415.564 228.006 416.112L229.994 415.888ZM223 453L223.781 453.625L223.821 453.575L223.854 453.52L223 453ZM104.793 529.707C105.183 530.098 105.817 530.098 106.207 529.707L112.571 523.343C112.962 522.953 112.962 522.319 112.571 521.929C112.181 521.538 111.547 521.538 111.157 521.929L105.5 527.586L99.8431 521.929C99.4526 521.538 98.8195 521.538 98.4289 521.929C98.0384 522.319 98.0384 522.953 98.4289 523.343L104.793 529.707ZM228.006 416.112C228.499 420.468 228.746 426.767 228.006 433.389C227.265 440.02 225.541 446.902 222.146 452.48L223.854 453.52C227.459 447.598 229.235 440.397 229.994 433.611C230.754 426.816 230.501 420.365 229.994 415.888L228.006 416.112ZM222.219 452.375C208.894 469.031 183.867 476.506 156.945 478.002L157.055 479.998C184.133 478.494 209.906 470.969 223.781 453.625L222.219 452.375ZM156.945 478.002C143.126 478.769 130.029 486.303 120.409 496.177C110.804 506.035 104.5 518.397 104.5 529H106.5C106.5 519.103 112.446 507.215 121.841 497.573C131.221 487.947 143.874 480.731 157.055 479.998L156.945 478.002Z" fill="#CFD2E4"/>
<rect x="410.637" y="171.594" width="61.3763" height="61.3763" rx="14.5" transform="rotate(-165 410.637 171.594)" fill="url(#paint2_linear)"/>
<rect x="410.637" y="171.594" width="61.3763" height="61.3763" rx="14.5" transform="rotate(-165 410.637 171.594)" fill="url(#paint3_linear)"/>
<rect x="410.637" y="171.594" width="61.3763" height="61.3763" rx="14.5" transform="rotate(-165 410.637 171.594)" stroke="white"/>
<g filter="url(#filter5_d)">
<rect x="439.733" y="142.471" width="39.669" height="39.669" rx="6" transform="rotate(-165 439.733 142.471)" fill="url(#paint4_linear)"/>
<rect x="439.733" y="142.471" width="39.669" height="39.669" rx="6" transform="rotate(-165 439.733 142.471)" fill="#0052D4"/>
</g>
<path d="M67.933 418.816C67.0753 422.017 63.7853 423.916 60.5845 423.058L22.7956 412.933C19.5948 412.075 17.6953 408.785 18.5529 405.584L25.055 381.318C27.9138 370.649 38.8806 364.317 49.5499 367.176L73.8159 373.678C77.0167 374.536 78.9162 377.826 78.0585 381.027L67.933 418.816Z" fill="url(#paint5_linear)"/>
<circle cx="480" cy="484" r="15" fill="#C4C4C4"/>
<circle cx="480" cy="484" r="15" fill="url(#paint6_linear)"/>
<g filter="url(#filter6_b)">
<circle cx="35.5" cy="366.5" r="14.5" fill="#F3F6FD" fill-opacity="0.3"/>
</g>
<path d="M518.727 309.328H516.969V293.273C516.969 290.366 514.603 288 511.695 288H469.273C466.366 288 464 290.366 464 293.273V325.148C464 328.056 466.366 330.422 469.273 330.422H482.25L480.006 334.909C479.733 335.454 479.763 336.101 480.083 336.619C480.403 337.138 480.969 337.453 481.578 337.453H499.391H499.391V342.727C499.391 345.634 501.756 348 504.664 348H518.727C521.634 348 524 345.634 524 342.727V314.602C524 311.694 521.634 309.328 518.727 309.328ZM484.422 333.938L486.18 330.422H494.789L496.546 333.938H484.422ZM499.391 331.765L498.719 330.422H499.391V331.765ZM499.391 326.906H469.273C468.304 326.906 467.516 326.118 467.516 325.148V323.391H499.391V326.906ZM499.391 314.602V319.875H467.516V293.273C467.516 292.304 468.304 291.516 469.273 291.516H511.695C512.665 291.516 513.453 292.304 513.453 293.273V309.328H504.664C501.756 309.328 499.391 311.694 499.391 314.602ZM520.484 342.727C520.484 343.696 519.696 344.484 518.727 344.484H504.664C503.695 344.484 502.906 343.696 502.906 342.727V340.969H520.484V342.727ZM520.484 337.453H502.906V319.875H520.484V337.453ZM520.484 316.359H502.906V314.602C502.906 313.632 503.695 312.844 504.664 312.844H518.727C519.696 312.844 520.484 313.632 520.484 314.602V316.359Z" fill="#B9C4DE"/>
<defs>
<filter id="filter0_d" x="88" y="188" width="288" height="288" filterUnits="userSpaceOnUse" color-interpolation-filters="sRGB">
<feFlood flood-opacity="0" result="BackgroundImageFix"/>
<feColorMatrix in="SourceAlpha" type="matrix" values="0 0 0 0 0 0 0 0 0 0 0 0 0 0 0 0 0 0 127 0"/>
<feOffset dy="15"/>
<feGaussianBlur stdDeviation="25"/>
<feColorMatrix type="matrix" values="0 0 0 0 0.654902 0 0 0 0 0.682353 0 0 0 0 0.827451 0 0 0 0.25 0"/>
<feBlend mode="normal" in2="BackgroundImageFix" result="effect1_dropShadow"/>
<feBlend mode="normal" in="SourceGraphic" in2="effect1_dropShadow" result="shape"/>
</filter>
<filter id="filter1_d" x="0" y="504" width="220" height="220" filterUnits="userSpaceOnUse" color-interpolation-filters="sRGB">
<feFlood flood-opacity="0" result="BackgroundImageFix"/>
<feColorMatrix in="SourceAlpha" type="matrix" values="0 0 0 0 0 0 0 0 0 0 0 0 0 0 0 0 0 0 127 0"/>
<feOffset dy="15"/>
<feGaussianBlur stdDeviation="25"/>
<feColorMatrix type="matrix" values="0 0 0 0 0.654902 0 0 0 0 0.682353 0 0 0 0 0.827451 0 0 0 0.25 0"/>
<feBlend mode="normal" in2="BackgroundImageFix" result="effect1_dropShadow"/>
<feBlend mode="normal" in="SourceGraphic" in2="effect1_dropShadow" result="shape"/>
</filter>
<filter id="filter2_d" x="240" y="444" width="220" height="220" filterUnits="userSpaceOnUse" color-interpolation-filters="sRGB">
<feFlood flood-opacity="0" result="BackgroundImageFix"/>
<feColorMatrix in="SourceAlpha" type="matrix" values="0 0 0 0 0 0 0 0 0 0 0 0 0 0 0 0 0 0 127 0"/>
<feOffset dy="15"/>
<feGaussianBlur stdDeviation="25"/>
<feColorMatrix type="matrix" values="0 0 0 0 0.654902 0 0 0 0 0.682353 0 0 0 0 0.827451 0 0 0 0.25 0"/>
<feBlend mode="normal" in2="BackgroundImageFix" result="effect1_dropShadow"/>
<feBlend mode="normal" in="SourceGraphic" in2="effect1_dropShadow" result="shape"/>
</filter>
<filter id="filter3_d" x="384" y="223" width="220" height="220" filterUnits="userSpaceOnUse" color-interpolation-filters="sRGB">
<feFlood flood-opacity="0" result="BackgroundImageFix"/>
<feColorMatrix in="SourceAlpha" type="matrix" values="0 0 0 0 0 0 0 0 0 0 0 0 0 0 0 0 0 0 127 0"/>
<feOffset dy="15"/>
<feGaussianBlur stdDeviation="25"/>
<feColorMatrix type="matrix" values="0 0 0 0 0.654902 0 0 0 0 0.682353 0 0 0 0 0.827451 0 0 0 0.25 0"/>
<feBlend mode="normal" in2="BackgroundImageFix" result="effect1_dropShadow"/>
<feBlend mode="normal" in="SourceGraphic" in2="effect1_dropShadow" result="shape"/>
</filter>
<filter id="filter4_d" x="25" y="0" width="220" height="220" filterUnits="userSpaceOnUse" color-interpolation-filters="sRGB">
<feFlood flood-opacity="0" result="BackgroundImageFix"/>
<feColorMatrix in="SourceAlpha" type="matrix" values="0 0 0 0 0 0 0 0 0 0 0 0 0 0 0 0 0 0 127 0"/>
<feOffset dy="15"/>
<feGaussianBlur stdDeviation="25"/>
<feColorMatrix type="matrix" values="0 0 0 0 0.654902 0 0 0 0 0.682353 0 0 0 0 0.827451 0 0 0 0.25 0"/>
<feBlend mode="normal" in2="BackgroundImageFix" result="effect1_dropShadow"/>
<feBlend mode="normal" in="SourceGraphic" in2="effect1_dropShadow" result="shape"/>
</filter>
<filter id="filter5_d" x="351.416" y="68.887" width="148.584" height="148.584" filterUnits="userSpaceOnUse" color-interpolation-filters="sRGB">
<feFlood flood-opacity="0" result="BackgroundImageFix"/>
<feColorMatrix in="SourceAlpha" type="matrix" values="0 0 0 0 0 0 0 0 0 0 0 0 0 0 0 0 0 0 127 0"/>
<feOffset dy="25"/>
<feGaussianBlur stdDeviation="25"/>
<feColorMatrix type="matrix" values="0 0 0 0 0.0122396 0 0 0 0 0.298737 0 0 0 0 0.979167 0 0 0 0.25 0"/>
<feBlend mode="normal" in2="BackgroundImageFix" result="effect1_dropShadow"/>
<feBlend mode="normal" in="SourceGraphic" in2="effect1_dropShadow" result="shape"/>
</filter>
<filter id="filter6_b" x="-4" y="327" width="79" height="79" filterUnits="userSpaceOnUse" color-interpolation-filters="sRGB">
<feFlood flood-opacity="0" result="BackgroundImageFix"/>
<feGaussianBlur in="BackgroundImage" stdDeviation="12.5"/>
<feComposite in2="SourceAlpha" operator="in" result="effect1_backgroundBlur"/>
<feBlend mode="normal" in="SourceGraphic" in2="effect1_backgroundBlur" result="shape"/>
</filter>
<linearGradient id="paint0_linear" x1="187.571" y1="271.615" x2="242.248" y2="326.189" gradientUnits="userSpaceOnUse">
<stop stop-color="#387EB8"/>
<stop offset="1" stop-color="#366994"/>
</linearGradient>
<linearGradient id="paint1_linear" x1="221.031" y1="306.514" x2="279.74" y2="362.467" gradientUnits="userSpaceOnUse">
<stop stop-color="#FFE052"/>
<stop offset="1" stop-color="#FFC331"/>
</linearGradient>
<linearGradient id="paint2_linear" x1="410.99" y1="172.207" x2="480.103" y2="180.876" gradientUnits="userSpaceOnUse">
<stop stop-color="#0052D4"/>
<stop offset="0.5" stop-color="#4364F7"/>
<stop offset="1" stop-color="#6FB1FC"/>
</linearGradient>
<linearGradient id="paint3_linear" x1="260.438" y1="303.124" x2="338.754" y2="118.647" gradientUnits="userSpaceOnUse">
<stop stop-color="#0052D4"/>
<stop offset="0.5" stop-color="#4364F7"/>
<stop offset="1" stop-color="#6FB1FC"/>
</linearGradient>
<linearGradient id="paint4_linear" x1="343.987" y1="225.73" x2="393.794" y2="108.409" gradientUnits="userSpaceOnUse">
<stop stop-color="#0052D4"/>
<stop offset="0.5" stop-color="#4364F7"/>
<stop offset="1" stop-color="#6FB1FC"/>
</linearGradient>
<linearGradient id="paint5_linear" x1="73.1824" y1="452.443" x2="38.3656" y2="365.896" gradientUnits="userSpaceOnUse">
<stop stop-color="white"/>
<stop offset="1" stop-color="#F9CB15"/>
</linearGradient>
<linearGradient id="paint6_linear" x1="480" y1="499" x2="480" y2="469" gradientUnits="userSpaceOnUse">
<stop stop-color="#56AB2F"/>
<stop offset="1" stop-color="#A8E063"/>
</linearGradient>
<clipPath id="clip0">
<rect width="60" height="60" fill="white" transform="translate(80 569)"/>
</clipPath>
<clipPath id="clip1">
<rect width="60" height="60" fill="white" transform="translate(320 509)"/>
</clipPath>
</defs>
</svg>
