<svg width="675" height="718" viewBox="0 0 675 718" fill="none" xmlns="http://www.w3.org/2000/svg">
<rect x="93.5725" y="163.481" width="96.2394" height="96.2394" rx="29.5" transform="rotate(-165 93.5725 163.481)" stroke="white"/>
<rect x="793.858" y="288.737" width="470.904" height="470.904" rx="130" transform="rotate(-165 793.858 288.737)" fill="url(#paint0_linear)"/>
<rect x="477.551" y="438.494" width="280.723" height="280.723" rx="60" transform="rotate(-165 477.551 438.494)" fill="url(#paint1_linear)"/>
<g filter="url(#filter0_b)">
<circle cx="540.5" cy="221.5" r="35.5" fill="#F3F6FD" fill-opacity="0.3"/>
</g>
<rect x="290.465" y="288.556" width="266.949" height="266.949" rx="79.5" transform="rotate(-165 290.465 288.556)" stroke="white"/>
<g filter="url(#filter1_d)">
<path d="M127.359 163.718C127.359 146.951 140.951 133.359 157.718 133.359C174.485 133.359 188.077 146.951 188.077 163.718C188.077 180.485 174.485 194.077 157.718 194.077L134.105 194.077C130.379 194.077 127.359 191.056 127.359 187.33L127.359 163.718Z" fill="#4364F7"/>
<path d="M127.359 163.718C127.359 146.951 140.951 133.359 157.718 133.359C174.485 133.359 188.077 146.951 188.077 163.718C188.077 180.485 174.485 194.077 157.718 194.077L134.105 194.077C130.379 194.077 127.359 191.056 127.359 187.33L127.359 163.718Z" fill="url(#paint2_linear)"/>
<path d="M127.859 163.718C127.859 147.227 141.227 133.859 157.718 133.859C174.208 133.859 187.577 147.227 187.577 163.718C187.577 180.208 174.208 193.577 157.718 193.577L134.105 193.577C130.656 193.577 127.859 190.78 127.859 187.33L127.859 163.718Z" stroke="url(#paint3_linear)"/>
</g>
<mask id="mask0" mask-type="alpha" maskUnits="userSpaceOnUse" x="127" y="133" width="62" height="62">
<path d="M127.359 163.718C127.359 146.951 140.951 133.359 157.718 133.359C174.485 133.359 188.077 146.951 188.077 163.718C188.077 180.485 174.485 194.077 157.718 194.077H134.105C130.379 194.077 127.359 191.056 127.359 187.33V163.718Z" fill="#4364F7"/>
<path d="M127.359 163.718C127.359 146.951 140.951 133.359 157.718 133.359C174.485 133.359 188.077 146.951 188.077 163.718C188.077 180.485 174.485 194.077 157.718 194.077H134.105C130.379 194.077 127.359 191.056 127.359 187.33V163.718Z" fill="url(#paint4_linear)"/>
</mask>
<g mask="url(#mask0)">
<path d="M124.023 187.461C124.023 181.966 128.478 177.51 133.974 177.51C139.47 177.51 143.925 181.966 143.925 187.461C143.925 192.957 139.47 197.413 133.974 197.413C128.478 197.413 124.023 192.957 124.023 187.461Z" fill="white" fill-opacity="0.15"/>
<path d="M110.139 187.461C110.139 173.745 121.258 162.627 134.974 162.627C148.69 162.627 159.809 173.745 159.809 187.461C159.809 201.177 148.69 212.296 134.974 212.296C121.258 212.296 110.139 201.177 110.139 187.461Z" fill="white" fill-opacity="0.15"/>
<path d="M92.3932 187.461C92.3932 163.945 111.457 144.88 134.974 144.88C158.491 144.88 177.555 163.945 177.555 187.461C177.555 210.978 158.491 230.042 134.974 230.042C111.457 230.042 92.3932 210.978 92.3932 187.461Z" fill="white" fill-opacity="0.15"/>
</g>
<g clip-path="url(#clip0)">
<path d="M385.336 206.046C384.23 204.078 382.369 202.553 380.011 201.921C378.9 201.619 377.74 201.544 376.601 201.703C375.461 201.861 374.365 202.249 373.379 202.842L373.339 202.831C372.328 203.42 371.444 204.202 370.737 205.132C370.029 206.063 369.513 207.125 369.216 208.256C368.592 210.523 368.892 212.945 370.051 214.991L370.08 215.045C370.642 216.047 371.4 216.925 372.309 217.627C373.218 218.329 374.259 218.841 375.37 219.132C377.728 219.764 380.096 219.386 382.038 218.249L382.065 218.211C384.003 217.087 385.479 215.184 386.121 212.785C386.745 210.515 386.449 208.09 385.295 206.038L385.309 206.041L385.336 206.046ZM347.76 322.283C350.118 322.914 352.495 322.505 354.432 321.381L354.46 321.343C356.396 320.225 357.876 318.308 358.511 315.936C359.162 313.508 358.799 311.138 357.718 309.183L357.702 309.179C356.599 307.197 354.736 305.678 352.378 305.046C351.268 304.741 350.106 304.666 348.966 304.826C347.825 304.986 346.729 305.377 345.745 305.975L345.704 305.964C343.677 307.171 342.206 309.125 341.606 311.407C340.989 313.669 341.291 316.083 342.446 318.123L342.475 318.177C343.039 319.179 343.797 320.057 344.704 320.762C345.612 321.466 346.65 321.985 347.76 322.283ZM400.839 308.552C401.999 308.555 403.148 308.325 404.217 307.875C405.286 307.425 406.254 306.765 407.064 305.935L407.301 305.674C408.815 304.022 409.65 301.86 409.641 299.619C409.66 297.322 408.838 295.06 407.099 293.328L407.002 293.215C405.377 291.622 403.187 290.738 400.912 290.756C398.664 290.727 396.393 291.648 394.689 293.389C393.034 295.076 392.1 297.34 392.083 299.703C392.078 302.052 392.988 304.31 394.621 305.998L394.635 306.002C396.34 307.731 398.57 308.551 400.847 308.534L400.839 308.552ZM374.894 255.624C373.278 252.776 370.59 250.538 367.201 249.63C365.585 249.2 363.9 249.098 362.244 249.329C360.588 249.56 358.995 250.12 357.558 250.976C354.743 252.633 352.551 255.374 351.626 258.827C350.732 262.127 351.163 265.645 352.828 268.631C354.44 271.463 357.124 273.685 360.485 274.586C363.847 275.487 367.317 274.913 370.138 273.269C373.074 271.516 375.209 268.684 376.086 265.378C376.984 262.089 376.546 258.579 374.869 255.611L374.894 255.624ZM373.969 239.651C378.593 241.77 382.422 245.307 384.901 249.749L384.928 249.756C385.323 250.457 385.683 251.178 386.006 251.916L395.783 249.206C395.588 245.486 396.476 241.79 398.339 238.565C400.771 234.301 404.795 230.983 409.859 229.585L410.027 229.531C412.397 228.89 414.87 228.725 417.304 229.048C419.738 229.371 422.083 230.175 424.204 231.413C426.356 232.671 428.238 234.344 429.739 236.335C431.241 238.326 432.333 240.594 432.952 243.01L432.948 243.023C434.277 248.122 433.424 253.335 431.004 257.585C428.577 261.851 424.541 265.193 419.48 266.578L418.139 266.962L418.023 266.931C413.601 267.776 409.022 266.996 405.129 264.734C401.96 262.878 399.401 260.139 397.765 256.851L388.003 259.547C388.286 262.501 388.034 265.482 387.259 268.346C386.467 271.303 385.168 274.014 383.494 276.376L390.603 283.581C393.748 281.48 397.319 280.465 400.922 280.433C405.763 280.389 410.606 282.256 414.273 286.011L414.517 286.222L414.514 286.235C417.92 289.837 419.798 294.62 419.752 299.578C419.729 304.658 417.722 309.527 414.158 313.147L413.924 313.417L413.905 313.412C410.394 316.87 405.679 318.832 400.751 318.886C395.921 318.888 391.068 317.035 387.394 313.318L387.404 313.283C383.853 309.674 381.88 304.803 381.918 299.74C381.915 296.021 382.993 292.381 385.02 289.263L377.905 282.041C377.258 282.509 376.588 282.944 375.898 283.346L375.864 283.365C371.561 285.914 366.472 287.123 361.359 286.606L358.699 296.535C361.964 298.211 364.663 300.812 366.46 304.013L366.466 304.044C368.871 308.268 369.665 313.472 368.295 318.587C366.992 323.483 363.813 327.67 359.447 330.24L359.419 330.291C355.208 332.731 350.092 333.586 345.066 332.24C340.064 330.899 336.05 327.597 333.637 323.351L333.624 323.347L333.638 323.293C331.138 318.884 330.476 313.666 331.795 308.772C333.167 303.654 336.464 299.55 340.658 297.094L340.666 297.067L340.679 297.07C343.826 295.18 347.466 294.275 351.132 294.472L353.792 284.544C349.082 282.426 345.314 278.846 342.894 274.496L342.866 274.46C339.656 268.798 338.8 262.102 340.482 255.815C342.239 249.259 346.466 244.036 351.834 240.862L351.869 240.872C356.23 238.262 361.31 237.112 366.37 237.589L369.02 227.701C365.769 226.004 363.078 223.403 361.27 220.212L361.257 220.208L361.264 220.181C358.765 215.761 358.106 210.535 359.428 205.633C360.737 200.729 363.92 196.535 368.292 193.955L368.336 193.952C370.467 192.678 372.833 191.844 375.293 191.499C377.753 191.155 380.257 191.308 382.657 191.948C387.686 193.296 391.686 196.594 394.103 200.857L394.1 200.87L394.113 200.874C396.513 205.117 397.306 210.326 395.942 215.417C394.633 220.319 391.453 224.513 387.087 227.097L387.066 227.121C383.937 228.954 380.319 229.896 376.602 229.73L373.952 239.618L373.969 239.651ZM423.18 245.767L423.138 245.64C422.532 243.426 421.084 241.537 419.104 240.375C418.107 239.791 417.003 239.412 415.857 239.263C414.711 239.113 413.546 239.195 412.432 239.504L412.446 239.508C410.103 240.135 408.232 241.69 407.088 243.682C405.915 245.735 405.592 248.165 406.188 250.453L406.211 250.517C406.837 252.853 408.334 254.715 410.264 255.819C412.189 256.977 414.586 257.347 416.905 256.696L417.028 256.671C419.318 256.001 421.148 254.461 422.249 252.53C423.383 250.535 423.79 248.131 423.18 245.767Z" fill="white"/>
</g>
<path d="M594.992 396.434C589.924 395.076 586.917 389.867 588.275 384.799L610.533 301.73C611.891 296.662 617.1 293.654 622.168 295.012L676.26 309.506C697.332 315.152 709.837 336.812 704.191 357.883L689.697 411.975C688.339 417.043 683.13 420.051 678.062 418.693L594.992 396.434Z" stroke="#DAE0EE"/>
<path d="M577.623 406.656C572.289 405.226 569.123 399.743 570.552 394.408L584.011 344.18C585.44 338.845 590.924 335.679 596.258 337.109L617.509 342.803C638.847 348.521 651.511 370.454 645.793 391.793L640.099 413.043C638.67 418.378 633.186 421.544 627.852 420.114L577.623 406.656Z" fill="#6FB1FC"/>
<mask id="mask1" mask-type="alpha" maskUnits="userSpaceOnUse" x="568" y="334" width="89" height="89">
<path d="M577.71 406.713C572.375 405.284 569.209 399.8 570.639 394.466L584.08 344.301C585.51 338.966 590.993 335.801 596.328 337.23L617.515 342.907C638.853 348.625 651.517 370.558 645.799 391.897L640.122 413.084C638.693 418.418 633.209 421.584 627.874 420.155L577.71 406.713Z" fill="#6FB1FC"/>
</mask>
<g mask="url(#mask1)">
<path d="M620.126 382.368C614.791 380.939 611.625 375.455 613.055 370.121L626.496 319.956C627.926 314.621 633.409 311.455 638.744 312.885L659.931 318.562C681.269 324.279 693.933 346.213 688.215 367.552L682.538 388.739C681.109 394.073 675.625 397.239 670.291 395.81L620.126 382.368Z" fill="white" fill-opacity="0.15"/>
<path d="M596.038 396.275C590.703 394.846 587.537 389.363 588.967 384.028L602.408 333.863C603.838 328.528 609.321 325.363 614.656 326.792L635.843 332.469C657.181 338.187 669.845 360.12 664.127 381.459L658.45 402.646C657.02 407.98 651.537 411.146 646.202 409.717L596.038 396.275Z" fill="white" fill-opacity="0.15"/>
</g>
<g filter="url(#filter2_d)">
<path d="M278.653 613.734C274.365 629.738 257.915 639.235 241.911 634.947L154.978 611.653C138.974 607.365 129.476 590.915 133.765 574.911L144.117 536.274C155.553 493.597 199.42 468.27 242.097 479.706L280.734 490.058C296.738 494.347 306.235 510.797 301.947 526.801L278.653 613.734Z" fill="#0052D4"/>
</g>
<path d="M154.031 636.906C151.886 644.908 143.661 649.656 135.659 647.512L55.4889 626.031C47.4869 623.887 42.7382 615.661 44.8823 607.659L59.8934 551.637C65.6111 530.298 87.5446 517.635 108.883 523.353L164.906 538.364C172.908 540.508 177.656 548.733 175.512 556.735L154.031 636.906Z" fill="url(#paint5_linear)"/>
<path d="M209.684 596.818L202.007 570.295L209.688 572.353L214.079 586.69L224.725 576.382L232.839 578.556L213.2 597.76L209.684 596.818ZM203.578 528.298L234.794 565.418L232.649 573.424L201.418 536.358L203.578 528.298ZM237.316 507.757L244.722 534.207L236.609 532.033L232.542 517.783L221.571 528.004L213.89 525.945L233.8 506.815L237.316 507.757Z" fill="white"/>
<rect x="479.572" y="609.481" width="96.2394" height="96.2394" rx="29.5" transform="rotate(-165 479.572 609.481)" fill="url(#paint6_linear)"/>
<rect x="479.572" y="609.481" width="96.2394" height="96.2394" rx="29.5" transform="rotate(-165 479.572 609.481)" fill="url(#paint7_linear)"/>
<rect x="479.572" y="609.481" width="96.2394" height="96.2394" rx="29.5" transform="rotate(-165 479.572 609.481)" stroke="white"/>
<g filter="url(#filter3_d)">
<rect x="524.734" y="563.739" width="61.8407" height="61.8407" rx="15" transform="rotate(-165 524.734 563.739)" fill="url(#paint8_linear)"/>
<rect x="524.734" y="563.739" width="61.8407" height="61.8407" rx="15" transform="rotate(-165 524.734 563.739)" fill="#0052D4"/>
</g>
<defs>
<filter id="filter0_b" x="480" y="161" width="121" height="121" filterUnits="userSpaceOnUse" color-interpolation-filters="sRGB">
<feFlood flood-opacity="0" result="BackgroundImageFix"/>
<feGaussianBlur in="BackgroundImage" stdDeviation="12.5"/>
<feComposite in2="SourceAlpha" operator="in" result="effect1_backgroundBlur"/>
<feBlend mode="normal" in="SourceGraphic" in2="effect1_backgroundBlur" result="shape"/>
</filter>
<filter id="filter1_d" x="77.3589" y="108.359" width="160.718" height="160.718" filterUnits="userSpaceOnUse" color-interpolation-filters="sRGB">
<feFlood flood-opacity="0" result="BackgroundImageFix"/>
<feColorMatrix in="SourceAlpha" type="matrix" values="0 0 0 0 0 0 0 0 0 0 0 0 0 0 0 0 0 0 127 0"/>
<feOffset dy="25"/>
<feGaussianBlur stdDeviation="25"/>
<feColorMatrix type="matrix" values="0 0 0 0 0.0122396 0 0 0 0 0.298737 0 0 0 0 0.979167 0 0 0 0.25 0"/>
<feBlend mode="normal" in2="BackgroundImageFix" result="effect1_dropShadow"/>
<feBlend mode="normal" in="SourceGraphic" in2="effect1_dropShadow" result="shape"/>
</filter>
<filter id="filter2_d" x="76" y="434" width="283.712" height="283.712" filterUnits="userSpaceOnUse" color-interpolation-filters="sRGB">
<feFlood flood-opacity="0" result="BackgroundImageFix"/>
<feColorMatrix in="SourceAlpha" type="matrix" values="0 0 0 0 0 0 0 0 0 0 0 0 0 0 0 0 0 0 127 0"/>
<feOffset dy="25"/>
<feGaussianBlur stdDeviation="25"/>
<feColorMatrix type="matrix" values="0 0 0 0 0.0122396 0 0 0 0 0.298737 0 0 0 0 0.979167 0 0 0 0.25 0"/>
<feBlend mode="normal" in2="BackgroundImageFix" result="effect1_dropShadow"/>
<feBlend mode="normal" in="SourceGraphic" in2="effect1_dropShadow" result="shape"/>
</filter>
<filter id="filter3_d" x="415" y="463" width="175.739" height="175.739" filterUnits="userSpaceOnUse" color-interpolation-filters="sRGB">
<feFlood flood-opacity="0" result="BackgroundImageFix"/>
<feColorMatrix in="SourceAlpha" type="matrix" values="0 0 0 0 0 0 0 0 0 0 0 0 0 0 0 0 0 0 127 0"/>
<feOffset dy="25"/>
<feGaussianBlur stdDeviation="25"/>
<feColorMatrix type="matrix" values="0 0 0 0 0.0122396 0 0 0 0 0.298737 0 0 0 0 0.979167 0 0 0 0.25 0"/>
<feBlend mode="normal" in2="BackgroundImageFix" result="effect1_dropShadow"/>
<feBlend mode="normal" in="SourceGraphic" in2="effect1_dropShadow" result="shape"/>
</filter>
<linearGradient id="paint0_linear" x1="793.858" y1="288.737" x2="1315.62" y2="354.184" gradientUnits="userSpaceOnUse">
<stop stop-color="#0052D4"/>
<stop offset="0.5" stop-color="#4364F7"/>
<stop offset="1" stop-color="#6FB1FC"/>
</linearGradient>
<linearGradient id="paint1_linear" x1="401.915" y1="300.54" x2="709.592" y2="710.114" gradientUnits="userSpaceOnUse">
<stop stop-color="white"/>
<stop offset="1" stop-color="#F9CB15"/>
</linearGradient>
<linearGradient id="paint2_linear" x1="132.021" y1="138.154" x2="178.389" y2="189.102" gradientUnits="userSpaceOnUse">
<stop stop-color="#8599F2"/>
<stop offset="1" stop-color="#4364F7"/>
</linearGradient>
<linearGradient id="paint3_linear" x1="184.114" y1="145.596" x2="120.281" y2="160.954" gradientUnits="userSpaceOnUse">
<stop stop-color="#4260EB"/>
<stop offset="1" stop-color="white" stop-opacity="0.5"/>
</linearGradient>
<linearGradient id="paint4_linear" x1="132.021" y1="138.154" x2="178.389" y2="189.102" gradientUnits="userSpaceOnUse">
<stop stop-color="#8599F2"/>
<stop offset="1" stop-color="#4364F7"/>
</linearGradient>
<linearGradient id="paint5_linear" x1="219.5" y1="531.5" x2="24.5" y2="616.5" gradientUnits="userSpaceOnUse">
<stop stop-color="white" stop-opacity="0.4"/>
<stop offset="1" stop-color="#F9CB15"/>
</linearGradient>
<linearGradient id="paint6_linear" x1="479.926" y1="610.093" x2="587.667" y2="623.608" gradientUnits="userSpaceOnUse">
<stop stop-color="#0052D4"/>
<stop offset="0.5" stop-color="#4364F7"/>
<stop offset="1" stop-color="#6FB1FC"/>
</linearGradient>
<linearGradient id="paint7_linear" x1="245.228" y1="814.182" x2="367.317" y2="526.598" gradientUnits="userSpaceOnUse">
<stop stop-color="#0052D4"/>
<stop offset="0.5" stop-color="#4364F7"/>
<stop offset="1" stop-color="#6FB1FC"/>
</linearGradient>
<linearGradient id="paint8_linear" x1="375.474" y1="693.532" x2="453.118" y2="510.639" gradientUnits="userSpaceOnUse">
<stop stop-color="#0052D4"/>
<stop offset="0.5" stop-color="#4364F7"/>
<stop offset="1" stop-color="#6FB1FC"/>
</linearGradient>
<clipPath id="clip0">
<rect width="111.723" height="167.585" fill="white" transform="translate(351.374 172) rotate(15)"/>
</clipPath>
</defs>
</svg>
